    <svg width="48" height="41" viewBox="0 0 48 41" fill="none" xmlns="http://www.w3.org/2000/svg">
        <path d="M36.0519 20.3393C37.517 14.3949 33.6614 8.43008 27.668 7.06981C21.6746 5.70953 15.7085 9.45029 14.3425 15.4185C13.3487 19.7578 15.0665 24.0834 18.3791 26.6442L15.2953 30.7658C15.2953 30.7658 32.6471 34.1359 36.0485 20.3393H36.0519Z" fill="white"/>
        <path d="M19.7864 31.9084C17.1499 31.9084 15.2717 31.5513 15.1521 31.5275C14.8892 31.4765 14.6706 31.2928 14.575 31.0446C14.4794 30.7963 14.5169 30.5141 14.6774 30.2998L17.3173 26.7665C14.0798 23.9134 12.6182 19.4721 13.588 15.2416C14.295 12.1504 16.1664 9.52165 18.8609 7.83491C21.5553 6.14817 24.745 5.60406 27.8493 6.30801C31.015 7.02555 33.6958 8.93333 35.3999 11.6811C37.0597 14.3574 37.5651 17.4963 36.8206 20.5195C35.3521 26.4775 31.1106 30.2726 24.5538 31.4867C22.8531 31.8029 21.2138 31.905 19.7966 31.905L19.7864 31.9084ZM16.7128 30.1808C18.3145 30.3577 21.2343 30.5311 24.301 29.9564C30.2705 28.8375 33.969 25.5389 35.2975 20.1556C35.9429 17.5405 35.5058 14.8233 34.0647 12.5041C32.5825 10.1134 30.2501 8.45384 27.4975 7.82811C21.9344 6.56646 16.3747 10.0488 15.1077 15.5919C14.2164 19.4823 15.6917 23.5801 18.8643 26.0286C19.199 26.287 19.2673 26.7665 19.0111 27.1066L16.7128 30.1808Z" fill="#231F20"/>
        <path d="M18.741 18.85C17.9111 15.4833 20.0933 12.1098 23.4879 11.3379C26.8824 10.5693 30.2565 12.6845 31.0317 16.0648C31.5918 18.5235 30.6219 20.9686 28.747 22.4173L30.4921 24.7502C30.4921 24.7502 20.6705 26.6579 18.7444 18.8466L18.741 18.85Z" fill="#FFD046"/>
        <path d="M42.2811 19.0438C41.8098 19.0438 41.4273 18.663 41.4273 18.1937C41.4273 8.9438 34.3104 1.70034 25.2229 1.70034C16.1355 1.70034 8.99805 8.92 8.99805 18.1359C8.99805 18.6052 8.61556 18.986 8.14429 18.986C7.67301 18.986 7.29053 18.6052 7.29053 18.1359C7.29053 7.96781 15.1656 0 25.2229 0C35.2802 0 43.1348 7.99161 43.1348 18.1937C43.1348 18.663 42.7524 19.0438 42.2811 19.0438Z" fill="#231F20"/>
        <path d="M22.6174 39.2268C20.7084 39.2268 18.7994 38.9139 16.9451 38.2848C16.4977 38.1351 16.2586 37.6488 16.4123 37.2067C16.5626 36.7613 17.0475 36.5266 17.4949 36.6762C21.61 38.0705 26.0427 37.7373 29.9735 35.7377C33.9144 33.7312 36.8821 30.2966 38.3335 26.0559C38.4837 25.6104 38.9687 25.3724 39.4161 25.5254C39.8634 25.675 40.1025 26.1613 39.9488 26.6034C38.3574 31.2624 35.0892 35.0439 30.7487 37.251C28.1703 38.5636 25.3973 39.2268 22.614 39.2268H22.6174Z" fill="#231F20"/>
        <path d="M9.34622 28.5552C8.84762 28.5552 8.35244 28.4498 7.88799 28.2389C7.02399 27.8513 6.36488 27.1507 6.03021 26.2699L4.2134 21.4784C3.90264 20.6622 3.93337 19.7746 4.29195 18.9789C4.65053 18.1831 5.3028 17.5744 6.12241 17.2683L7.64894 16.6936C7.86067 16.6154 8.09631 16.6222 8.30121 16.714C8.50612 16.8058 8.67004 16.9793 8.74858 17.1901L12.3754 26.7528C12.4539 26.9637 12.4471 27.1983 12.3549 27.4024C12.2627 27.6064 12.0885 27.7696 11.8768 27.8479L10.5995 28.3274C10.1931 28.4804 9.76968 28.5552 9.34622 28.5552ZM7.45428 18.581L6.72688 18.8531C6.33415 18.9993 6.01996 19.2917 5.84921 19.6726C5.67504 20.0535 5.66138 20.4786 5.81165 20.8731L7.62845 25.6646C7.80262 26.1237 8.14412 26.4842 8.59149 26.6848C9.03886 26.8855 9.53746 26.9025 9.99849 26.729L10.48 26.5488L7.4577 18.5776L7.45428 18.581Z" fill="#231F20"/>
        <path d="M41.1097 28.5552C40.6862 28.5552 40.2628 28.4804 39.8564 28.3274L38.5792 27.8479C38.3674 27.7696 38.1967 27.6064 38.1011 27.4024C38.0088 27.1983 38.002 26.9637 38.0806 26.7528L41.7073 17.1901C41.7859 16.9793 41.9498 16.8092 42.1547 16.714C42.3596 16.6222 42.5953 16.6154 42.807 16.6936L44.3335 17.2683C45.1531 17.5778 45.8054 18.1831 46.164 18.9789C46.5226 19.7746 46.5533 20.6622 46.2425 21.4784L44.4257 26.2699C44.091 27.1507 43.4319 27.8513 42.5679 28.2389C42.1001 28.4498 41.6049 28.5552 41.1097 28.5552ZM39.9793 26.5556L40.4574 26.7358C40.9185 26.9093 41.4171 26.8923 41.8644 26.6916C42.3118 26.491 42.6533 26.1271 42.8275 25.6714L44.6443 20.8799C44.7911 20.4888 44.7809 20.0637 44.6067 19.6794C44.4325 19.2985 44.1218 19.0061 43.729 18.8599L43.0016 18.5878L39.9793 26.559V26.5556Z" fill="#231F20"/>
        <path d="M15.2373 38.7438C16.484 38.7438 17.4947 37.7374 17.4947 36.4959C17.4947 35.2544 16.484 34.248 15.2373 34.248C13.9906 34.248 12.98 35.2544 12.98 36.4959C12.98 37.7374 13.9906 38.7438 15.2373 38.7438Z" fill="#FFD046"/>
        <path d="M15.4867 39.5025C13.8646 39.5025 12.5464 38.1898 12.5464 36.5745C12.5464 34.9591 13.8646 33.6465 15.4867 33.6465C17.1089 33.6465 18.4271 34.9591 18.4271 36.5745C18.4271 38.1898 17.1089 39.5025 15.4867 39.5025ZM15.4867 35.0068C14.6193 35.0068 13.9124 35.7107 13.9124 36.5745C13.9124 37.4382 14.6193 38.1422 15.4867 38.1422C16.3542 38.1422 17.0611 37.4382 17.0611 36.5745C17.0611 35.7107 16.3542 35.0068 15.4867 35.0068Z" fill="#231F20"/>
        </svg>
