<svg width="48" height="41" viewBox="0 0 48 41" fill="none" xmlns="http://www.w3.org/2000/svg">
<path d="M36.0519 20.3393C37.517 14.3949 33.6614 8.43008 27.668 7.06981C21.6746 5.70953 15.7085 9.45029 14.3425 15.4185C13.3487 19.7578 15.0665 24.0834 18.3791 26.6442L15.2953 30.7658C15.2953 30.7658 32.6471 34.1359 36.0485 20.3393H36.0519Z" fill="#2D343B"/>
<path d="M19.7862 31.9084C17.1498 31.9084 15.2715 31.5513 15.152 31.5275C14.889 31.4765 14.6705 31.2928 14.5748 31.0446C14.4792 30.7963 14.5168 30.5141 14.6773 30.2998L17.3171 26.7665C14.0797 23.9134 12.618 19.4721 13.5879 15.2416C14.2948 12.1504 16.1663 9.52165 18.8607 7.83491C21.5552 6.14817 24.7448 5.60406 27.8491 6.30801C31.0149 7.02555 33.6957 8.93333 35.3998 11.6811C37.0595 14.3574 37.5649 17.4963 36.8204 20.5195C35.352 26.4775 31.1105 30.2726 24.5536 31.4867C22.8529 31.8029 21.2137 31.905 19.7964 31.905L19.7862 31.9084ZM16.7127 30.1808C18.3143 30.3577 21.2342 30.5311 24.3009 29.9564C30.2704 28.8375 33.9689 25.5389 35.2973 20.1556C35.9428 17.5405 35.5057 14.8233 34.0645 12.5041C32.5824 10.1134 30.2499 8.45384 27.4974 7.82811C21.9343 6.56646 16.3746 10.0488 15.1076 15.5919C14.2163 19.4823 15.6916 23.5801 18.8641 26.0286C19.1988 26.287 19.2671 26.7665 19.011 27.1066L16.7127 30.1808Z" fill="white"/>
<path d="M18.7412 18.85C17.9113 15.4833 20.0935 12.1098 23.4881 11.3379C26.8826 10.5693 30.2567 12.6845 31.0319 16.0648C31.592 18.5235 30.6221 20.9686 28.7472 22.4173L30.4923 24.7502C30.4923 24.7502 20.6707 26.6579 18.7446 18.8466L18.7412 18.85Z" fill="#FFD046"/>
<path d="M42.281 19.0438C41.8097 19.0438 41.4272 18.663 41.4272 18.1937C41.4272 8.9438 34.3102 1.70034 25.2228 1.70034C16.1354 1.70034 8.99793 8.92 8.99793 18.1359C8.99793 18.6052 8.61544 18.986 8.14417 18.986C7.67289 18.986 7.29041 18.6052 7.29041 18.1359C7.29041 7.96781 15.1655 0 25.2228 0C35.2801 0 43.1347 7.99161 43.1347 18.1937C43.1347 18.663 42.7522 19.0438 42.281 19.0438Z" fill="white"/>
<path d="M22.6173 39.2268C20.7083 39.2268 18.7993 38.9139 16.9449 38.2848C16.4975 38.1351 16.2585 37.6488 16.4122 37.2067C16.5624 36.7613 17.0474 36.5266 17.4947 36.6762C21.6099 38.0705 26.0426 37.7373 29.9733 35.7377C33.9143 33.7312 36.8819 30.2966 38.3333 26.0559C38.4836 25.6104 38.9685 25.3724 39.4159 25.5254C39.8633 25.675 40.1023 26.1613 39.9486 26.6034C38.3572 31.2624 35.089 35.0439 30.7485 37.251C28.1702 38.5636 25.3971 39.2268 22.6139 39.2268H22.6173Z" fill="white"/>
<path d="M9.34622 28.5552C8.84762 28.5552 8.35244 28.4498 7.88799 28.2389C7.02399 27.8513 6.36488 27.1507 6.03021 26.2699L4.2134 21.4784C3.90264 20.6622 3.93337 19.7746 4.29195 18.9789C4.65053 18.1831 5.3028 17.5744 6.12241 17.2683L7.64894 16.6936C7.86067 16.6154 8.09631 16.6222 8.30121 16.714C8.50612 16.8058 8.67004 16.9793 8.74858 17.1901L12.3754 26.7528C12.4539 26.9637 12.4471 27.1983 12.3549 27.4024C12.2627 27.6064 12.0885 27.7696 11.8768 27.8479L10.5995 28.3274C10.1931 28.4804 9.76968 28.5552 9.34622 28.5552ZM7.45428 18.581L6.72688 18.8531C6.33415 18.9993 6.01996 19.2917 5.84921 19.6726C5.67504 20.0535 5.66138 20.4786 5.81165 20.8731L7.62845 25.6646C7.80262 26.1237 8.14412 26.4842 8.59149 26.6848C9.03886 26.8855 9.53746 26.9025 9.99849 26.729L10.48 26.5488L7.4577 18.5776L7.45428 18.581Z" fill="white"/>
<path d="M41.1096 28.5552C40.6861 28.5552 40.2626 28.4804 39.8562 28.3274L38.579 27.8479C38.3673 27.7696 38.1965 27.6064 38.1009 27.4024C38.0087 27.1983 38.0019 26.9637 38.0804 26.7528L41.7072 17.1901C41.7857 16.9793 41.9497 16.8092 42.1546 16.714C42.3595 16.6222 42.5951 16.6154 42.8068 16.6936L44.3334 17.2683C45.153 17.5778 45.8052 18.1831 46.1638 18.9789C46.5224 19.7746 46.5531 20.6622 46.2424 21.4784L44.4256 26.2699C44.0909 27.1507 43.4318 27.8513 42.5678 28.2389C42.0999 28.4498 41.6047 28.5552 41.1096 28.5552ZM39.9792 26.5556L40.4573 26.7358C40.9183 26.9093 41.4169 26.8923 41.8643 26.6916C42.3117 26.491 42.6532 26.1271 42.8273 25.6714L44.6441 20.8799C44.791 20.4888 44.7807 20.0637 44.6066 19.6794C44.4324 19.2985 44.1216 19.0061 43.7289 18.8599L43.0015 18.5878L39.9792 26.559V26.5556Z" fill="white"/>
<path d="M15.2374 38.7438C16.4841 38.7438 17.4948 37.7374 17.4948 36.4959C17.4948 35.2544 16.4841 34.248 15.2374 34.248C13.9908 34.248 12.9801 35.2544 12.9801 36.4959C12.9801 37.7374 13.9908 38.7438 15.2374 38.7438Z" fill="#FFD046"/>
<path d="M15.4867 39.5025C13.8646 39.5025 12.5464 38.1898 12.5464 36.5745C12.5464 34.9591 13.8646 33.6465 15.4867 33.6465C17.1089 33.6465 18.4271 34.9591 18.4271 36.5745C18.4271 38.1898 17.1089 39.5025 15.4867 39.5025ZM15.4867 35.0068C14.6193 35.0068 13.9124 35.7107 13.9124 36.5745C13.9124 37.4382 14.6193 38.1422 15.4867 38.1422C16.3541 38.1422 17.061 37.4382 17.061 36.5745C17.061 35.7107 16.3541 35.0068 15.4867 35.0068Z" fill="white"/>
</svg>
