<svg width="430" height="82" viewBox="0 0 430 82" fill="none" xmlns="http://www.w3.org/2000/svg">
<rect width="430" height="82" fill="#E4F5F5"/>
<path d="M64.7422 19.3047L67.7812 13.5781H69.2109L65.4062 20.5703V25H64.0781V20.6328L60.2656 13.5781H61.7188L64.7422 19.3047ZM77.9688 20.7031C77.9688 21.4062 77.8776 22.0339 77.6953 22.5859C77.513 23.138 77.25 23.6042 76.9062 23.9844C76.5625 24.3646 76.1458 24.6562 75.6562 24.8594C75.1719 25.0573 74.6224 25.1562 74.0078 25.1562C73.4349 25.1562 72.9089 25.0573 72.4297 24.8594C71.9557 24.6562 71.5443 24.3646 71.1953 23.9844C70.8516 23.6042 70.5833 23.138 70.3906 22.5859C70.2031 22.0339 70.1094 21.4062 70.1094 20.7031C70.1094 19.7656 70.2682 18.9688 70.5859 18.3125C70.9036 17.651 71.3568 17.1484 71.9453 16.8047C72.5391 16.4557 73.2448 16.2812 74.0625 16.2812C74.8438 16.2812 75.526 16.4557 76.1094 16.8047C76.6979 17.1536 77.1536 17.6589 77.4766 18.3203C77.8047 18.9766 77.9688 19.7708 77.9688 20.7031ZM71.4531 20.7031C71.4531 21.3906 71.5443 21.987 71.7266 22.4922C71.9089 22.9974 72.1901 23.388 72.5703 23.6641C72.9505 23.9401 73.4401 24.0781 74.0391 24.0781C74.6328 24.0781 75.1198 23.9401 75.5 23.6641C75.8854 23.388 76.1693 22.9974 76.3516 22.4922C76.5339 21.987 76.625 21.3906 76.625 20.7031C76.625 20.0208 76.5339 19.4323 76.3516 18.9375C76.1693 18.4375 75.888 18.0521 75.5078 17.7812C75.1276 17.5104 74.6354 17.375 74.0312 17.375C73.1406 17.375 72.487 17.6693 72.0703 18.2578C71.6589 18.8464 71.4531 19.6615 71.4531 20.7031ZM87.2812 16.4375V25H86.2188L86.0312 23.7969H85.9609C85.7839 24.0938 85.5547 24.3438 85.2734 24.5469C84.9922 24.75 84.6745 24.901 84.3203 25C83.9714 25.1042 83.599 25.1562 83.2031 25.1562C82.526 25.1562 81.9583 25.0469 81.5 24.8281C81.0417 24.6094 80.6953 24.2708 80.4609 23.8125C80.2318 23.3542 80.1172 22.7656 80.1172 22.0469V16.4375H81.4297V21.9531C81.4297 22.6667 81.5911 23.2005 81.9141 23.5547C82.237 23.9036 82.7292 24.0781 83.3906 24.0781C84.026 24.0781 84.5312 23.9583 84.9062 23.7188C85.2865 23.4792 85.5599 23.1276 85.7266 22.6641C85.8932 22.1953 85.9766 21.6224 85.9766 20.9453V16.4375H87.2812ZM93.9141 16.2812C94.0859 16.2812 94.2656 16.2917 94.4531 16.3125C94.6406 16.3281 94.8073 16.3516 94.9531 16.3828L94.7891 17.5859C94.6484 17.5495 94.4922 17.5208 94.3203 17.5C94.1484 17.4792 93.987 17.4688 93.8359 17.4688C93.4922 17.4688 93.1667 17.5391 92.8594 17.6797C92.5573 17.8151 92.2917 18.013 92.0625 18.2734C91.8333 18.5286 91.6536 18.8385 91.5234 19.2031C91.3932 19.5625 91.3281 19.9635 91.3281 20.4062V25H90.0234V16.4375H91.1016L91.2422 18.0156H91.2969C91.474 17.6979 91.6875 17.4089 91.9375 17.1484C92.1875 16.8828 92.4766 16.6719 92.8047 16.5156C93.138 16.3594 93.5078 16.2812 93.9141 16.2812ZM104.156 25.1562C103.385 25.1562 102.706 24.9974 102.117 24.6797C101.529 24.362 101.07 23.8776 100.742 23.2266C100.414 22.5755 100.25 21.7552 100.25 20.7656C100.25 19.7292 100.422 18.8828 100.766 18.2266C101.115 17.5651 101.594 17.0755 102.203 16.7578C102.812 16.4401 103.505 16.2812 104.281 16.2812C104.708 16.2812 105.12 16.3255 105.516 16.4141C105.917 16.4974 106.245 16.6042 106.5 16.7344L106.109 17.8203C105.849 17.7161 105.547 17.6224 105.203 17.5391C104.865 17.4557 104.547 17.4141 104.25 17.4141C103.656 17.4141 103.161 17.5417 102.766 17.7969C102.375 18.0521 102.081 18.4271 101.883 18.9219C101.69 19.4167 101.594 20.026 101.594 20.75C101.594 21.4427 101.688 22.0339 101.875 22.5234C102.068 23.013 102.352 23.388 102.727 23.6484C103.107 23.9036 103.581 24.0312 104.148 24.0312C104.602 24.0312 105.01 23.9844 105.375 23.8906C105.74 23.7917 106.07 23.6771 106.367 23.5469V24.7031C106.081 24.849 105.76 24.9609 105.406 25.0391C105.057 25.1172 104.641 25.1562 104.156 25.1562ZM109.695 12.8438V16.4766C109.695 16.6849 109.69 16.8958 109.68 17.1094C109.669 17.3177 109.651 17.5104 109.625 17.6875H109.711C109.888 17.3854 110.112 17.1328 110.383 16.9297C110.659 16.7214 110.971 16.5651 111.32 16.4609C111.669 16.3516 112.039 16.2969 112.43 16.2969C113.117 16.2969 113.69 16.4062 114.148 16.625C114.612 16.8438 114.958 17.1823 115.188 17.6406C115.422 18.099 115.539 18.6927 115.539 19.4219V25H114.258V19.5078C114.258 18.7943 114.094 18.2604 113.766 17.9062C113.443 17.5521 112.945 17.375 112.273 17.375C111.638 17.375 111.13 17.4974 110.75 17.7422C110.375 17.9818 110.104 18.3359 109.938 18.8047C109.776 19.2734 109.695 19.8464 109.695 20.5234V25H108.398V12.8438H109.695ZM121.414 16.2969C122.435 16.2969 123.193 16.526 123.688 16.9844C124.182 17.4427 124.43 18.1745 124.43 19.1797V25H123.484L123.234 23.7344H123.172C122.932 24.0469 122.682 24.3099 122.422 24.5234C122.161 24.7318 121.859 24.8906 121.516 25C121.177 25.1042 120.76 25.1562 120.266 25.1562C119.745 25.1562 119.281 25.0651 118.875 24.8828C118.474 24.7005 118.156 24.4245 117.922 24.0547C117.693 23.6849 117.578 23.2161 117.578 22.6484C117.578 21.7943 117.917 21.138 118.594 20.6797C119.271 20.2214 120.302 19.9714 121.688 19.9297L123.164 19.8672V19.3438C123.164 18.6042 123.005 18.0859 122.688 17.7891C122.37 17.4922 121.922 17.3438 121.344 17.3438C120.896 17.3438 120.469 17.4089 120.062 17.5391C119.656 17.6693 119.271 17.8229 118.906 18L118.508 17.0156C118.893 16.8177 119.336 16.6484 119.836 16.5078C120.336 16.3672 120.862 16.2969 121.414 16.2969ZM123.148 20.7812L121.844 20.8359C120.776 20.8776 120.023 21.0521 119.586 21.3594C119.148 21.6667 118.93 22.1016 118.93 22.6641C118.93 23.1536 119.078 23.5156 119.375 23.75C119.672 23.9844 120.065 24.1016 120.555 24.1016C121.315 24.1016 121.938 23.8906 122.422 23.4688C122.906 23.0469 123.148 22.4141 123.148 21.5703V20.7812ZM129.867 24.0938C130.081 24.0938 130.299 24.0755 130.523 24.0391C130.747 24.0026 130.93 23.9583 131.07 23.9062V24.9141C130.919 24.9818 130.708 25.0391 130.438 25.0859C130.172 25.1328 129.911 25.1562 129.656 25.1562C129.203 25.1562 128.792 25.0781 128.422 24.9219C128.052 24.7604 127.755 24.4896 127.531 24.1094C127.312 23.7292 127.203 23.2031 127.203 22.5312V17.4531H125.984V16.8203L127.211 16.3125L127.727 14.4531H128.508V16.4375H131.016V17.4531H128.508V22.4922C128.508 23.0286 128.63 23.4297 128.875 23.6953C129.125 23.9609 129.456 24.0938 129.867 24.0938ZM143.93 24.9844L142.406 20C142.339 19.7865 142.273 19.5781 142.211 19.375C142.154 19.1667 142.099 18.9688 142.047 18.7812C142 18.5885 141.956 18.4115 141.914 18.25C141.878 18.0833 141.846 17.9401 141.82 17.8203H141.766C141.745 17.9401 141.716 18.0833 141.68 18.25C141.643 18.4115 141.599 18.5885 141.547 18.7812C141.5 18.974 141.448 19.1771 141.391 19.3906C141.333 19.599 141.268 19.8099 141.195 20.0234L139.602 24.9844H138.141L135.781 16.4219H137.125L138.359 21.1484C138.443 21.4609 138.521 21.7708 138.594 22.0781C138.672 22.3802 138.737 22.6667 138.789 22.9375C138.846 23.2031 138.888 23.4349 138.914 23.6328H138.977C139.008 23.5026 139.042 23.3464 139.078 23.1641C139.12 22.9818 139.164 22.7891 139.211 22.5859C139.263 22.3776 139.318 22.1719 139.375 21.9688C139.432 21.7604 139.49 21.5651 139.547 21.3828L141.125 16.4219H142.523L144.047 21.375C144.125 21.625 144.201 21.8854 144.273 22.1562C144.352 22.4271 144.422 22.6901 144.484 22.9453C144.547 23.1953 144.591 23.4193 144.617 23.6172H144.68C144.701 23.4401 144.74 23.2214 144.797 22.9609C144.854 22.7005 144.919 22.4141 144.992 22.1016C145.07 21.7891 145.151 21.4714 145.234 21.1484L146.484 16.4219H147.805L145.438 24.9844H143.93ZM150.664 16.4375V25H149.367V16.4375H150.664ZM150.031 13.2344C150.245 13.2344 150.427 13.3047 150.578 13.4453C150.734 13.5807 150.812 13.7943 150.812 14.0859C150.812 14.3724 150.734 14.5859 150.578 14.7266C150.427 14.8672 150.245 14.9375 150.031 14.9375C149.807 14.9375 149.62 14.8672 149.469 14.7266C149.323 14.5859 149.25 14.3724 149.25 14.0859C149.25 13.7943 149.323 13.5807 149.469 13.4453C149.62 13.3047 149.807 13.2344 150.031 13.2344ZM154.719 25H153.414V12.8438H154.719V25ZM158.766 25H157.461V12.8438H158.766V25ZM166.961 12.8438V15.8828C166.961 16.2318 166.951 16.5703 166.93 16.8984C166.914 17.2266 166.901 17.4818 166.891 17.6641H166.961C167.195 17.2786 167.534 16.9531 167.977 16.6875C168.419 16.4219 168.984 16.2891 169.672 16.2891C170.745 16.2891 171.599 16.6615 172.234 17.4062C172.875 18.1458 173.195 19.2474 173.195 20.7109C173.195 21.6745 173.049 22.487 172.758 23.1484C172.466 23.8099 172.055 24.3099 171.523 24.6484C170.992 24.987 170.365 25.1562 169.641 25.1562C168.964 25.1562 168.406 25.0312 167.969 24.7812C167.536 24.526 167.203 24.2161 166.969 23.8516H166.867L166.602 25H165.664V12.8438H166.961ZM169.461 17.375C168.841 17.375 168.349 17.4974 167.984 17.7422C167.62 17.9818 167.357 18.3464 167.195 18.8359C167.039 19.3203 166.961 19.9349 166.961 20.6797V20.75C166.961 21.8281 167.141 22.6536 167.5 23.2266C167.859 23.7943 168.513 24.0781 169.461 24.0781C170.258 24.0781 170.854 23.7865 171.25 23.2031C171.651 22.6198 171.852 21.7865 171.852 20.7031C171.852 19.599 171.654 18.7682 171.258 18.2109C170.867 17.6536 170.268 17.375 169.461 17.375ZM178.758 16.2812C179.487 16.2812 180.112 16.4427 180.633 16.7656C181.154 17.0885 181.552 17.5417 181.828 18.125C182.104 18.7031 182.242 19.3802 182.242 20.1562V20.9609H176.328C176.344 21.9661 176.594 22.7318 177.078 23.2578C177.562 23.7839 178.245 24.0469 179.125 24.0469C179.667 24.0469 180.146 23.9974 180.562 23.8984C180.979 23.7995 181.411 23.6536 181.859 23.4609V24.6016C181.427 24.7943 180.997 24.9349 180.57 25.0234C180.148 25.112 179.648 25.1562 179.07 25.1562C178.247 25.1562 177.529 24.9896 176.914 24.6562C176.305 24.3177 175.831 23.8229 175.492 23.1719C175.154 22.5208 174.984 21.724 174.984 20.7812C174.984 19.8594 175.138 19.0625 175.445 18.3906C175.758 17.7135 176.195 17.1927 176.758 16.8281C177.326 16.4635 177.992 16.2812 178.758 16.2812ZM178.742 17.3438C178.049 17.3438 177.497 17.5703 177.086 18.0234C176.674 18.4766 176.43 19.1094 176.352 19.9219H180.883C180.878 19.4115 180.797 18.9635 180.641 18.5781C180.49 18.1875 180.258 17.8854 179.945 17.6719C179.633 17.4531 179.232 17.3438 178.742 17.3438ZM192.492 16.2812C192.664 16.2812 192.844 16.2917 193.031 16.3125C193.219 16.3281 193.385 16.3516 193.531 16.3828L193.367 17.5859C193.227 17.5495 193.07 17.5208 192.898 17.5C192.727 17.4792 192.565 17.4688 192.414 17.4688C192.07 17.4688 191.745 17.5391 191.438 17.6797C191.135 17.8151 190.87 18.013 190.641 18.2734C190.411 18.5286 190.232 18.8385 190.102 19.2031C189.971 19.5625 189.906 19.9635 189.906 20.4062V25H188.602V16.4375H189.68L189.82 18.0156H189.875C190.052 17.6979 190.266 17.4089 190.516 17.1484C190.766 16.8828 191.055 16.6719 191.383 16.5156C191.716 16.3594 192.086 16.2812 192.492 16.2812ZM198.445 16.2812C199.174 16.2812 199.799 16.4427 200.32 16.7656C200.841 17.0885 201.24 17.5417 201.516 18.125C201.792 18.7031 201.93 19.3802 201.93 20.1562V20.9609H196.016C196.031 21.9661 196.281 22.7318 196.766 23.2578C197.25 23.7839 197.932 24.0469 198.812 24.0469C199.354 24.0469 199.833 23.9974 200.25 23.8984C200.667 23.7995 201.099 23.6536 201.547 23.4609V24.6016C201.115 24.7943 200.685 24.9349 200.258 25.0234C199.836 25.112 199.336 25.1562 198.758 25.1562C197.935 25.1562 197.216 24.9896 196.602 24.6562C195.992 24.3177 195.518 23.8229 195.18 23.1719C194.841 22.5208 194.672 21.724 194.672 20.7812C194.672 19.8594 194.826 19.0625 195.133 18.3906C195.445 17.7135 195.883 17.1927 196.445 16.8281C197.013 16.4635 197.68 16.2812 198.445 16.2812ZM198.43 17.3438C197.737 17.3438 197.185 17.5703 196.773 18.0234C196.362 18.4766 196.117 19.1094 196.039 19.9219H200.57C200.565 19.4115 200.484 18.9635 200.328 18.5781C200.177 18.1875 199.945 17.8854 199.633 17.6719C199.32 17.4531 198.919 17.3438 198.43 17.3438ZM207.562 25.1562C206.792 25.1562 206.112 24.9974 205.523 24.6797C204.935 24.362 204.477 23.8776 204.148 23.2266C203.82 22.5755 203.656 21.7552 203.656 20.7656C203.656 19.7292 203.828 18.8828 204.172 18.2266C204.521 17.5651 205 17.0755 205.609 16.7578C206.219 16.4401 206.911 16.2812 207.688 16.2812C208.115 16.2812 208.526 16.3255 208.922 16.4141C209.323 16.4974 209.651 16.6042 209.906 16.7344L209.516 17.8203C209.255 17.7161 208.953 17.6224 208.609 17.5391C208.271 17.4557 207.953 17.4141 207.656 17.4141C207.062 17.4141 206.568 17.5417 206.172 17.7969C205.781 18.0521 205.487 18.4271 205.289 18.9219C205.096 19.4167 205 20.026 205 20.75C205 21.4427 205.094 22.0339 205.281 22.5234C205.474 23.013 205.758 23.388 206.133 23.6484C206.513 23.9036 206.987 24.0312 207.555 24.0312C208.008 24.0312 208.417 23.9844 208.781 23.8906C209.146 23.7917 209.477 23.6771 209.773 23.5469V24.7031C209.487 24.849 209.167 24.9609 208.812 25.0391C208.464 25.1172 208.047 25.1562 207.562 25.1562ZM219.188 20.7031C219.188 21.4062 219.096 22.0339 218.914 22.5859C218.732 23.138 218.469 23.6042 218.125 23.9844C217.781 24.3646 217.365 24.6562 216.875 24.8594C216.391 25.0573 215.841 25.1562 215.227 25.1562C214.654 25.1562 214.128 25.0573 213.648 24.8594C213.174 24.6562 212.763 24.3646 212.414 23.9844C212.07 23.6042 211.802 23.138 211.609 22.5859C211.422 22.0339 211.328 21.4062 211.328 20.7031C211.328 19.7656 211.487 18.9688 211.805 18.3125C212.122 17.651 212.576 17.1484 213.164 16.8047C213.758 16.4557 214.464 16.2812 215.281 16.2812C216.062 16.2812 216.745 16.4557 217.328 16.8047C217.917 17.1536 218.372 17.6589 218.695 18.3203C219.023 18.9766 219.188 19.7708 219.188 20.7031ZM212.672 20.7031C212.672 21.3906 212.763 21.987 212.945 22.4922C213.128 22.9974 213.409 23.388 213.789 23.6641C214.169 23.9401 214.659 24.0781 215.258 24.0781C215.852 24.0781 216.339 23.9401 216.719 23.6641C217.104 23.388 217.388 22.9974 217.57 22.4922C217.753 21.987 217.844 21.3906 217.844 20.7031C217.844 20.0208 217.753 19.4323 217.57 18.9375C217.388 18.4375 217.107 18.0521 216.727 17.7812C216.346 17.5104 215.854 17.375 215.25 17.375C214.359 17.375 213.706 17.6693 213.289 18.2578C212.878 18.8464 212.672 19.6615 212.672 20.7031ZM225.32 16.2812C225.492 16.2812 225.672 16.2917 225.859 16.3125C226.047 16.3281 226.214 16.3516 226.359 16.3828L226.195 17.5859C226.055 17.5495 225.898 17.5208 225.727 17.5C225.555 17.4792 225.393 17.4688 225.242 17.4688C224.898 17.4688 224.573 17.5391 224.266 17.6797C223.964 17.8151 223.698 18.013 223.469 18.2734C223.24 18.5286 223.06 18.8385 222.93 19.2031C222.799 19.5625 222.734 19.9635 222.734 20.4062V25H221.43V16.4375H222.508L222.648 18.0156H222.703C222.88 17.6979 223.094 17.4089 223.344 17.1484C223.594 16.8828 223.883 16.6719 224.211 16.5156C224.544 16.3594 224.914 16.2812 225.32 16.2812ZM231.023 25.1562C229.94 25.1562 229.081 24.7865 228.445 24.0469C227.815 23.3073 227.5 22.2083 227.5 20.75C227.5 19.276 227.823 18.1641 228.469 17.4141C229.115 16.6589 229.974 16.2812 231.047 16.2812C231.5 16.2812 231.896 16.3411 232.234 16.4609C232.573 16.5807 232.865 16.7422 233.109 16.9453C233.354 17.1432 233.56 17.3698 233.727 17.625H233.82C233.799 17.4635 233.779 17.2422 233.758 16.9609C233.737 16.6797 233.727 16.4505 233.727 16.2734V12.8438H235.023V25H233.977L233.781 23.7812H233.727C233.565 24.0365 233.359 24.2682 233.109 24.4766C232.865 24.6849 232.57 24.8516 232.227 24.9766C231.888 25.0964 231.487 25.1562 231.023 25.1562ZM231.227 24.0781C232.143 24.0781 232.792 23.8177 233.172 23.2969C233.552 22.776 233.742 22.0026 233.742 20.9766V20.7422C233.742 19.6536 233.56 18.8177 233.195 18.2344C232.836 17.651 232.18 17.3594 231.227 17.3594C230.43 17.3594 229.833 17.6667 229.438 18.2812C229.042 18.8906 228.844 19.724 228.844 20.7812C228.844 21.8333 229.039 22.6458 229.43 23.2188C229.826 23.7917 230.424 24.0781 231.227 24.0781ZM241.07 16.2812C241.799 16.2812 242.424 16.4427 242.945 16.7656C243.466 17.0885 243.865 17.5417 244.141 18.125C244.417 18.7031 244.555 19.3802 244.555 20.1562V20.9609H238.641C238.656 21.9661 238.906 22.7318 239.391 23.2578C239.875 23.7839 240.557 24.0469 241.438 24.0469C241.979 24.0469 242.458 23.9974 242.875 23.8984C243.292 23.7995 243.724 23.6536 244.172 23.4609V24.6016C243.74 24.7943 243.31 24.9349 242.883 25.0234C242.461 25.112 241.961 25.1562 241.383 25.1562C240.56 25.1562 239.841 24.9896 239.227 24.6562C238.617 24.3177 238.143 23.8229 237.805 23.1719C237.466 22.5208 237.297 21.724 237.297 20.7812C237.297 19.8594 237.451 19.0625 237.758 18.3906C238.07 17.7135 238.508 17.1927 239.07 16.8281C239.638 16.4635 240.305 16.2812 241.07 16.2812ZM241.055 17.3438C240.362 17.3438 239.81 17.5703 239.398 18.0234C238.987 18.4766 238.742 19.1094 238.664 19.9219H243.195C243.19 19.4115 243.109 18.9635 242.953 18.5781C242.802 18.1875 242.57 17.8854 242.258 17.6719C241.945 17.4531 241.544 17.3438 241.055 17.3438ZM249.805 25.1562C248.721 25.1562 247.862 24.7865 247.227 24.0469C246.596 23.3073 246.281 22.2083 246.281 20.75C246.281 19.276 246.604 18.1641 247.25 17.4141C247.896 16.6589 248.755 16.2812 249.828 16.2812C250.281 16.2812 250.677 16.3411 251.016 16.4609C251.354 16.5807 251.646 16.7422 251.891 16.9453C252.135 17.1432 252.341 17.3698 252.508 17.625H252.602C252.581 17.4635 252.56 17.2422 252.539 16.9609C252.518 16.6797 252.508 16.4505 252.508 16.2734V12.8438H253.805V25H252.758L252.562 23.7812H252.508C252.346 24.0365 252.141 24.2682 251.891 24.4766C251.646 24.6849 251.352 24.8516 251.008 24.9766C250.669 25.0964 250.268 25.1562 249.805 25.1562ZM250.008 24.0781C250.924 24.0781 251.573 23.8177 251.953 23.2969C252.333 22.776 252.523 22.0026 252.523 20.9766V20.7422C252.523 19.6536 252.341 18.8177 251.977 18.2344C251.617 17.651 250.961 17.3594 250.008 17.3594C249.211 17.3594 248.615 17.6667 248.219 18.2812C247.823 18.8906 247.625 19.724 247.625 20.7812C247.625 21.8333 247.82 22.6458 248.211 23.2188C248.607 23.7917 249.206 24.0781 250.008 24.0781ZM264.523 17.4531H262.391V25H261.094V17.4531H259.578V16.8281L261.094 16.3984V15.8281C261.094 15.1094 261.201 14.526 261.414 14.0781C261.628 13.625 261.938 13.2917 262.344 13.0781C262.75 12.8646 263.245 12.7578 263.828 12.7578C264.156 12.7578 264.456 12.7865 264.727 12.8438C265.003 12.901 265.245 12.9661 265.453 13.0391L265.117 14.0625C264.94 14.0052 264.74 13.9531 264.516 13.9062C264.297 13.8542 264.073 13.8281 263.844 13.8281C263.349 13.8281 262.982 13.9896 262.742 14.3125C262.508 14.6302 262.391 15.1302 262.391 15.8125V16.4375H264.523V17.4531ZM273.484 20.7031C273.484 21.4062 273.393 22.0339 273.211 22.5859C273.029 23.138 272.766 23.6042 272.422 23.9844C272.078 24.3646 271.661 24.6562 271.172 24.8594C270.688 25.0573 270.138 25.1562 269.523 25.1562C268.951 25.1562 268.424 25.0573 267.945 24.8594C267.471 24.6562 267.06 24.3646 266.711 23.9844C266.367 23.6042 266.099 23.138 265.906 22.5859C265.719 22.0339 265.625 21.4062 265.625 20.7031C265.625 19.7656 265.784 18.9688 266.102 18.3125C266.419 17.651 266.872 17.1484 267.461 16.8047C268.055 16.4557 268.76 16.2812 269.578 16.2812C270.359 16.2812 271.042 16.4557 271.625 16.8047C272.214 17.1536 272.669 17.6589 272.992 18.3203C273.32 18.9766 273.484 19.7708 273.484 20.7031ZM266.969 20.7031C266.969 21.3906 267.06 21.987 267.242 22.4922C267.424 22.9974 267.706 23.388 268.086 23.6641C268.466 23.9401 268.956 24.0781 269.555 24.0781C270.148 24.0781 270.635 23.9401 271.016 23.6641C271.401 23.388 271.685 22.9974 271.867 22.4922C272.049 21.987 272.141 21.3906 272.141 20.7031C272.141 20.0208 272.049 19.4323 271.867 18.9375C271.685 18.4375 271.404 18.0521 271.023 17.7812C270.643 17.5104 270.151 17.375 269.547 17.375C268.656 17.375 268.003 17.6693 267.586 18.2578C267.174 18.8464 266.969 19.6615 266.969 20.7031ZM279.617 16.2812C279.789 16.2812 279.969 16.2917 280.156 16.3125C280.344 16.3281 280.51 16.3516 280.656 16.3828L280.492 17.5859C280.352 17.5495 280.195 17.5208 280.023 17.5C279.852 17.4792 279.69 17.4688 279.539 17.4688C279.195 17.4688 278.87 17.5391 278.562 17.6797C278.26 17.8151 277.995 18.013 277.766 18.2734C277.536 18.5286 277.357 18.8385 277.227 19.2031C277.096 19.5625 277.031 19.9635 277.031 20.4062V25H275.727V16.4375H276.805L276.945 18.0156H277C277.177 17.6979 277.391 17.4089 277.641 17.1484C277.891 16.8828 278.18 16.6719 278.508 16.5156C278.841 16.3594 279.211 16.2812 279.617 16.2812ZM292.172 28.8281V25.1562C292.172 24.9531 292.177 24.7188 292.188 24.4531C292.198 24.1875 292.216 23.9583 292.242 23.7656H292.156C291.917 24.1615 291.576 24.4922 291.133 24.7578C290.69 25.0234 290.12 25.1562 289.422 25.1562C288.375 25.1562 287.534 24.7865 286.898 24.0469C286.263 23.3073 285.945 22.2031 285.945 20.7344C285.945 19.7708 286.091 18.9583 286.383 18.2969C286.674 17.6354 287.086 17.1354 287.617 16.7969C288.154 16.4531 288.779 16.2812 289.492 16.2812C290.174 16.2812 290.732 16.4167 291.164 16.6875C291.596 16.9531 291.935 17.2786 292.18 17.6641H292.242L292.438 16.4375H293.469V28.8281H292.172ZM289.664 24.0781C290.268 24.0781 290.753 23.9661 291.117 23.7422C291.482 23.513 291.747 23.1693 291.914 22.7109C292.086 22.2526 292.177 21.6823 292.188 21V20.7266C292.188 19.6224 292 18.7865 291.625 18.2188C291.25 17.6458 290.596 17.3594 289.664 17.3594C288.862 17.3594 288.266 17.6667 287.875 18.2812C287.484 18.8906 287.289 19.7188 287.289 20.7656C287.289 21.8125 287.484 22.6276 287.875 23.2109C288.266 23.7891 288.862 24.0781 289.664 24.0781ZM303.297 16.4375V25H302.234L302.047 23.7969H301.977C301.799 24.0938 301.57 24.3438 301.289 24.5469C301.008 24.75 300.69 24.901 300.336 25C299.987 25.1042 299.615 25.1562 299.219 25.1562C298.542 25.1562 297.974 25.0469 297.516 24.8281C297.057 24.6094 296.711 24.2708 296.477 23.8125C296.247 23.3542 296.133 22.7656 296.133 22.0469V16.4375H297.445V21.9531C297.445 22.6667 297.607 23.2005 297.93 23.5547C298.253 23.9036 298.745 24.0781 299.406 24.0781C300.042 24.0781 300.547 23.9583 300.922 23.7188C301.302 23.4792 301.576 23.1276 301.742 22.6641C301.909 22.1953 301.992 21.6224 301.992 20.9453V16.4375H303.297ZM309.242 16.2969C310.263 16.2969 311.021 16.526 311.516 16.9844C312.01 17.4427 312.258 18.1745 312.258 19.1797V25H311.312L311.062 23.7344H311C310.76 24.0469 310.51 24.3099 310.25 24.5234C309.99 24.7318 309.688 24.8906 309.344 25C309.005 25.1042 308.589 25.1562 308.094 25.1562C307.573 25.1562 307.109 25.0651 306.703 24.8828C306.302 24.7005 305.984 24.4245 305.75 24.0547C305.521 23.6849 305.406 23.2161 305.406 22.6484C305.406 21.7943 305.745 21.138 306.422 20.6797C307.099 20.2214 308.13 19.9714 309.516 19.9297L310.992 19.8672V19.3438C310.992 18.6042 310.833 18.0859 310.516 17.7891C310.198 17.4922 309.75 17.3438 309.172 17.3438C308.724 17.3438 308.297 17.4089 307.891 17.5391C307.484 17.6693 307.099 17.8229 306.734 18L306.336 17.0156C306.721 16.8177 307.164 16.6484 307.664 16.5078C308.164 16.3672 308.69 16.2969 309.242 16.2969ZM310.977 20.7812L309.672 20.8359C308.604 20.8776 307.852 21.0521 307.414 21.3594C306.977 21.6667 306.758 22.1016 306.758 22.6641C306.758 23.1536 306.906 23.5156 307.203 23.75C307.5 23.9844 307.893 24.1016 308.383 24.1016C309.143 24.1016 309.766 23.8906 310.25 23.4688C310.734 23.0469 310.977 22.4141 310.977 21.5703V20.7812ZM316.234 25H314.93V12.8438H316.234V25ZM320.273 16.4375V25H318.977V16.4375H320.273ZM319.641 13.2344C319.854 13.2344 320.036 13.3047 320.188 13.4453C320.344 13.5807 320.422 13.7943 320.422 14.0859C320.422 14.3724 320.344 14.5859 320.188 14.7266C320.036 14.8672 319.854 14.9375 319.641 14.9375C319.417 14.9375 319.229 14.8672 319.078 14.7266C318.932 14.5859 318.859 14.3724 318.859 14.0859C318.859 13.7943 318.932 13.5807 319.078 13.4453C319.229 13.3047 319.417 13.2344 319.641 13.2344ZM325.789 24.0938C326.003 24.0938 326.221 24.0755 326.445 24.0391C326.669 24.0026 326.852 23.9583 326.992 23.9062V24.9141C326.841 24.9818 326.63 25.0391 326.359 25.0859C326.094 25.1328 325.833 25.1562 325.578 25.1562C325.125 25.1562 324.714 25.0781 324.344 24.9219C323.974 24.7604 323.677 24.4896 323.453 24.1094C323.234 23.7292 323.125 23.2031 323.125 22.5312V17.4531H321.906V16.8203L323.133 16.3125L323.648 14.4531H324.43V16.4375H326.938V17.4531H324.43V22.4922C324.43 23.0286 324.552 23.4297 324.797 23.6953C325.047 23.9609 325.378 24.0938 325.789 24.0938ZM327.375 16.4375H328.766L330.656 21.4062C330.766 21.6979 330.867 21.9792 330.961 22.25C331.055 22.5156 331.138 22.7708 331.211 23.0156C331.284 23.2604 331.341 23.4974 331.383 23.7266H331.438C331.51 23.4661 331.615 23.125 331.75 22.7031C331.885 22.276 332.031 21.8411 332.188 21.3984L333.977 16.4375H335.375L331.648 26.2578C331.451 26.7839 331.219 27.2422 330.953 27.6328C330.693 28.0234 330.375 28.3229 330 28.5312C329.625 28.7448 329.172 28.8516 328.641 28.8516C328.396 28.8516 328.18 28.8359 327.992 28.8047C327.805 28.7786 327.643 28.7474 327.508 28.7109V27.6719C327.622 27.6979 327.76 27.7214 327.922 27.7422C328.089 27.763 328.26 27.7734 328.438 27.7734C328.76 27.7734 329.039 27.7109 329.273 27.5859C329.513 27.4661 329.719 27.2891 329.891 27.0547C330.062 26.8203 330.211 26.5417 330.336 26.2188L330.805 25.0156L327.375 16.4375ZM336.547 24.1875C336.547 23.8229 336.635 23.5651 336.812 23.4141C336.99 23.2578 337.206 23.1797 337.461 23.1797C337.727 23.1797 337.951 23.2578 338.133 23.4141C338.315 23.5651 338.406 23.8229 338.406 24.1875C338.406 24.5469 338.315 24.8099 338.133 24.9766C337.951 25.138 337.727 25.2188 337.461 25.2188C337.206 25.2188 336.99 25.138 336.812 24.9766C336.635 24.8099 336.547 24.5469 336.547 24.1875ZM34.3359 38.2812C35.4036 38.2812 36.2552 38.6484 36.8906 39.3828C37.526 40.1172 37.8438 41.2214 37.8438 42.6953C37.8438 43.6693 37.6979 44.487 37.4062 45.1484C37.1146 45.8099 36.7031 46.3099 36.1719 46.6484C35.6458 46.987 35.0234 47.1562 34.3047 47.1562C33.8516 47.1562 33.4531 47.0964 33.1094 46.9766C32.7656 46.8568 32.4714 46.6953 32.2266 46.4922C31.9818 46.2891 31.7786 46.0677 31.6172 45.8281H31.5234C31.5391 46.0312 31.5573 46.276 31.5781 46.5625C31.6042 46.849 31.6172 47.099 31.6172 47.3125V50.8281H30.3125V38.4375H31.3828L31.5547 39.7031H31.6172C31.7839 39.4427 31.987 39.2057 32.2266 38.9922C32.4661 38.7734 32.7578 38.6016 33.1016 38.4766C33.4505 38.3464 33.862 38.2812 34.3359 38.2812ZM34.1094 39.375C33.5156 39.375 33.0365 39.4896 32.6719 39.7188C32.3125 39.9479 32.0495 40.2917 31.8828 40.75C31.7161 41.2031 31.6276 41.7734 31.6172 42.4609V42.7109C31.6172 43.4349 31.6953 44.0469 31.8516 44.5469C32.013 45.0469 32.276 45.4271 32.6406 45.6875C33.0104 45.9479 33.5052 46.0781 34.125 46.0781C34.6562 46.0781 35.099 45.9349 35.4531 45.6484C35.8073 45.362 36.0703 44.9635 36.2422 44.4531C36.4193 43.9375 36.5078 43.3464 36.5078 42.6797C36.5078 41.6693 36.3099 40.8672 35.9141 40.2734C35.5234 39.6745 34.9219 39.375 34.1094 39.375ZM47.1797 38.4375V47H46.1172L45.9297 45.7969H45.8594C45.6823 46.0938 45.4531 46.3438 45.1719 46.5469C44.8906 46.75 44.5729 46.901 44.2188 47C43.8698 47.1042 43.4974 47.1562 43.1016 47.1562C42.4245 47.1562 41.8568 47.0469 41.3984 46.8281C40.9401 46.6094 40.5938 46.2708 40.3594 45.8125C40.1302 45.3542 40.0156 44.7656 40.0156 44.0469V38.4375H41.3281V43.9531C41.3281 44.6667 41.4896 45.2005 41.8125 45.5547C42.1354 45.9036 42.6276 46.0781 43.2891 46.0781C43.9245 46.0781 44.4297 45.9583 44.8047 45.7188C45.1849 45.4792 45.4583 45.1276 45.625 44.6641C45.7917 44.1953 45.875 43.6224 45.875 42.9453V38.4375H47.1797ZM53.8125 38.2812C53.9844 38.2812 54.1641 38.2917 54.3516 38.3125C54.5391 38.3281 54.7057 38.3516 54.8516 38.3828L54.6875 39.5859C54.5469 39.5495 54.3906 39.5208 54.2188 39.5C54.0469 39.4792 53.8854 39.4688 53.7344 39.4688C53.3906 39.4688 53.0651 39.5391 52.7578 39.6797C52.4557 39.8151 52.1901 40.013 51.9609 40.2734C51.7318 40.5286 51.5521 40.8385 51.4219 41.2031C51.2917 41.5625 51.2266 41.9635 51.2266 42.4062V47H49.9219V38.4375H51L51.1406 40.0156H51.1953C51.3724 39.6979 51.5859 39.4089 51.8359 39.1484C52.0859 38.8828 52.375 38.6719 52.7031 38.5156C53.0365 38.3594 53.4062 38.2812 53.8125 38.2812ZM60.4922 38.2812C61.5599 38.2812 62.4115 38.6484 63.0469 39.3828C63.6823 40.1172 64 41.2214 64 42.6953C64 43.6693 63.8542 44.487 63.5625 45.1484C63.2708 45.8099 62.8594 46.3099 62.3281 46.6484C61.8021 46.987 61.1797 47.1562 60.4609 47.1562C60.0078 47.1562 59.6094 47.0964 59.2656 46.9766C58.9219 46.8568 58.6276 46.6953 58.3828 46.4922C58.138 46.2891 57.9349 46.0677 57.7734 45.8281H57.6797C57.6953 46.0312 57.7135 46.276 57.7344 46.5625C57.7604 46.849 57.7734 47.099 57.7734 47.3125V50.8281H56.4688V38.4375H57.5391L57.7109 39.7031H57.7734C57.9401 39.4427 58.1432 39.2057 58.3828 38.9922C58.6224 38.7734 58.9141 38.6016 59.2578 38.4766C59.6068 38.3464 60.0182 38.2812 60.4922 38.2812ZM60.2656 39.375C59.6719 39.375 59.1927 39.4896 58.8281 39.7188C58.4688 39.9479 58.2057 40.2917 58.0391 40.75C57.8724 41.2031 57.7839 41.7734 57.7734 42.4609V42.7109C57.7734 43.4349 57.8516 44.0469 58.0078 44.5469C58.1693 45.0469 58.4323 45.4271 58.7969 45.6875C59.1667 45.9479 59.6615 46.0781 60.2812 46.0781C60.8125 46.0781 61.2552 45.9349 61.6094 45.6484C61.9635 45.362 62.2266 44.9635 62.3984 44.4531C62.5755 43.9375 62.6641 43.3464 62.6641 42.6797C62.6641 41.6693 62.4661 40.8672 62.0703 40.2734C61.6797 39.6745 61.0781 39.375 60.2656 39.375ZM73.6484 42.7031C73.6484 43.4062 73.5573 44.0339 73.375 44.5859C73.1927 45.138 72.9297 45.6042 72.5859 45.9844C72.2422 46.3646 71.8255 46.6562 71.3359 46.8594C70.8516 47.0573 70.3021 47.1562 69.6875 47.1562C69.1146 47.1562 68.5885 47.0573 68.1094 46.8594C67.6354 46.6562 67.224 46.3646 66.875 45.9844C66.5312 45.6042 66.263 45.138 66.0703 44.5859C65.8828 44.0339 65.7891 43.4062 65.7891 42.7031C65.7891 41.7656 65.9479 40.9688 66.2656 40.3125C66.5833 39.651 67.0365 39.1484 67.625 38.8047C68.2188 38.4557 68.9245 38.2812 69.7422 38.2812C70.5234 38.2812 71.2057 38.4557 71.7891 38.8047C72.3776 39.1536 72.8333 39.6589 73.1562 40.3203C73.4844 40.9766 73.6484 41.7708 73.6484 42.7031ZM67.1328 42.7031C67.1328 43.3906 67.224 43.987 67.4062 44.4922C67.5885 44.9974 67.8698 45.388 68.25 45.6641C68.6302 45.9401 69.1198 46.0781 69.7188 46.0781C70.3125 46.0781 70.7995 45.9401 71.1797 45.6641C71.5651 45.388 71.849 44.9974 72.0312 44.4922C72.2135 43.987 72.3047 43.3906 72.3047 42.7031C72.3047 42.0208 72.2135 41.4323 72.0312 40.9375C71.849 40.4375 71.5677 40.0521 71.1875 39.7812C70.8073 39.5104 70.3151 39.375 69.7109 39.375C68.8203 39.375 68.1667 39.6693 67.75 40.2578C67.3385 40.8464 67.1328 41.6615 67.1328 42.7031ZM81.4297 44.6562C81.4297 45.2031 81.2917 45.6641 81.0156 46.0391C80.7448 46.4089 80.3542 46.6875 79.8438 46.875C79.3385 47.0625 78.7344 47.1562 78.0312 47.1562C77.4323 47.1562 76.9141 47.1094 76.4766 47.0156C76.0391 46.9219 75.6562 46.7891 75.3281 46.6172V45.4219C75.6771 45.5938 76.0938 45.75 76.5781 45.8906C77.0625 46.0312 77.5573 46.1016 78.0625 46.1016C78.8021 46.1016 79.3385 45.9818 79.6719 45.7422C80.0052 45.5026 80.1719 45.1771 80.1719 44.7656C80.1719 44.5312 80.1042 44.3255 79.9688 44.1484C79.8385 43.9661 79.6172 43.7917 79.3047 43.625C78.9922 43.4531 78.5599 43.2656 78.0078 43.0625C77.4609 42.8542 76.987 42.6484 76.5859 42.4453C76.1901 42.237 75.8828 41.9844 75.6641 41.6875C75.4505 41.3906 75.3438 41.0052 75.3438 40.5312C75.3438 39.8073 75.6354 39.2526 76.2188 38.8672C76.8073 38.4766 77.5781 38.2812 78.5312 38.2812C79.0469 38.2812 79.5286 38.3333 79.9766 38.4375C80.4297 38.5365 80.8516 38.6719 81.2422 38.8438L80.8047 39.8828C80.4505 39.7318 80.0729 39.6042 79.6719 39.5C79.2708 39.3958 78.862 39.3438 78.4453 39.3438C77.8464 39.3438 77.3854 39.4427 77.0625 39.6406C76.7448 39.8385 76.5859 40.1094 76.5859 40.4531C76.5859 40.7188 76.6589 40.9375 76.8047 41.1094C76.9557 41.2812 77.1953 41.4427 77.5234 41.5938C77.8516 41.7448 78.2839 41.9219 78.8203 42.125C79.3568 42.3229 79.8203 42.5286 80.2109 42.7422C80.6016 42.9505 80.901 43.2057 81.1094 43.5078C81.3229 43.8047 81.4297 44.1875 81.4297 44.6562ZM86.8125 38.2812C87.5417 38.2812 88.1667 38.4427 88.6875 38.7656C89.2083 39.0885 89.6068 39.5417 89.8828 40.125C90.1589 40.7031 90.2969 41.3802 90.2969 42.1562V42.9609H84.3828C84.3984 43.9661 84.6484 44.7318 85.1328 45.2578C85.6172 45.7839 86.2995 46.0469 87.1797 46.0469C87.7214 46.0469 88.2005 45.9974 88.6172 45.8984C89.0339 45.7995 89.4661 45.6536 89.9141 45.4609V46.6016C89.4818 46.7943 89.0521 46.9349 88.625 47.0234C88.2031 47.112 87.7031 47.1562 87.125 47.1562C86.3021 47.1562 85.5833 46.9896 84.9688 46.6562C84.3594 46.3177 83.8854 45.8229 83.5469 45.1719C83.2083 44.5208 83.0391 43.724 83.0391 42.7812C83.0391 41.8594 83.1927 41.0625 83.5 40.3906C83.8125 39.7135 84.25 39.1927 84.8125 38.8281C85.3802 38.4635 86.0469 38.2812 86.8125 38.2812ZM86.7969 39.3438C86.1042 39.3438 85.5521 39.5703 85.1406 40.0234C84.7292 40.4766 84.4844 41.1094 84.4062 41.9219H88.9375C88.9323 41.4115 88.8516 40.9635 88.6953 40.5781C88.5443 40.1875 88.3125 39.8854 88 39.6719C87.6875 39.4531 87.2865 39.3438 86.7969 39.3438ZM98.0391 44.6562C98.0391 45.2031 97.901 45.6641 97.625 46.0391C97.3542 46.4089 96.9635 46.6875 96.4531 46.875C95.9479 47.0625 95.3438 47.1562 94.6406 47.1562C94.0417 47.1562 93.5234 47.1094 93.0859 47.0156C92.6484 46.9219 92.2656 46.7891 91.9375 46.6172V45.4219C92.2865 45.5938 92.7031 45.75 93.1875 45.8906C93.6719 46.0312 94.1667 46.1016 94.6719 46.1016C95.4115 46.1016 95.9479 45.9818 96.2812 45.7422C96.6146 45.5026 96.7812 45.1771 96.7812 44.7656C96.7812 44.5312 96.7135 44.3255 96.5781 44.1484C96.4479 43.9661 96.2266 43.7917 95.9141 43.625C95.6016 43.4531 95.1693 43.2656 94.6172 43.0625C94.0703 42.8542 93.5964 42.6484 93.1953 42.4453C92.7995 42.237 92.4922 41.9844 92.2734 41.6875C92.0599 41.3906 91.9531 41.0052 91.9531 40.5312C91.9531 39.8073 92.2448 39.2526 92.8281 38.8672C93.4167 38.4766 94.1875 38.2812 95.1406 38.2812C95.6562 38.2812 96.138 38.3333 96.5859 38.4375C97.0391 38.5365 97.4609 38.6719 97.8516 38.8438L97.4141 39.8828C97.0599 39.7318 96.6823 39.6042 96.2812 39.5C95.8802 39.3958 95.4714 39.3438 95.0547 39.3438C94.4557 39.3438 93.9948 39.4427 93.6719 39.6406C93.3542 39.8385 93.1953 40.1094 93.1953 40.4531C93.1953 40.7188 93.2682 40.9375 93.4141 41.1094C93.5651 41.2812 93.8047 41.4427 94.1328 41.5938C94.4609 41.7448 94.8932 41.9219 95.4297 42.125C95.9661 42.3229 96.4297 42.5286 96.8203 42.7422C97.2109 42.9505 97.5104 43.2057 97.7188 43.5078C97.9323 43.8047 98.0391 44.1875 98.0391 44.6562ZM99.9297 46.1875C99.9297 45.8229 100.018 45.5651 100.195 45.4141C100.372 45.2578 100.589 45.1797 100.844 45.1797C101.109 45.1797 101.333 45.2578 101.516 45.4141C101.698 45.5651 101.789 45.8229 101.789 46.1875C101.789 46.5469 101.698 46.8099 101.516 46.9766C101.333 47.138 101.109 47.2188 100.844 47.2188C100.589 47.2188 100.372 47.138 100.195 46.9766C100.018 46.8099 99.9297 46.5469 99.9297 46.1875ZM116.656 35.5781L112.555 47H111.219L107.117 35.5781H108.508L111.18 43.1016C111.289 43.4036 111.385 43.6927 111.469 43.9688C111.557 44.2448 111.635 44.5104 111.703 44.7656C111.771 45.0208 111.831 45.2682 111.883 45.5078C111.935 45.2682 111.995 45.0208 112.062 44.7656C112.13 44.5052 112.208 44.237 112.297 43.9609C112.385 43.6797 112.484 43.3854 112.594 43.0781L115.25 35.5781H116.656ZM119.328 38.4375V47H118.031V38.4375H119.328ZM118.695 35.2344C118.909 35.2344 119.091 35.3047 119.242 35.4453C119.398 35.5807 119.477 35.7943 119.477 36.0859C119.477 36.3724 119.398 36.5859 119.242 36.7266C119.091 36.8672 118.909 36.9375 118.695 36.9375C118.471 36.9375 118.284 36.8672 118.133 36.7266C117.987 36.5859 117.914 36.3724 117.914 36.0859C117.914 35.7943 117.987 35.5807 118.133 35.4453C118.284 35.3047 118.471 35.2344 118.695 35.2344ZM127.617 44.6562C127.617 45.2031 127.479 45.6641 127.203 46.0391C126.932 46.4089 126.542 46.6875 126.031 46.875C125.526 47.0625 124.922 47.1562 124.219 47.1562C123.62 47.1562 123.102 47.1094 122.664 47.0156C122.227 46.9219 121.844 46.7891 121.516 46.6172V45.4219C121.865 45.5938 122.281 45.75 122.766 45.8906C123.25 46.0312 123.745 46.1016 124.25 46.1016C124.99 46.1016 125.526 45.9818 125.859 45.7422C126.193 45.5026 126.359 45.1771 126.359 44.7656C126.359 44.5312 126.292 44.3255 126.156 44.1484C126.026 43.9661 125.805 43.7917 125.492 43.625C125.18 43.4531 124.747 43.2656 124.195 43.0625C123.648 42.8542 123.174 42.6484 122.773 42.4453C122.378 42.237 122.07 41.9844 121.852 41.6875C121.638 41.3906 121.531 41.0052 121.531 40.5312C121.531 39.8073 121.823 39.2526 122.406 38.8672C122.995 38.4766 123.766 38.2812 124.719 38.2812C125.234 38.2812 125.716 38.3333 126.164 38.4375C126.617 38.5365 127.039 38.6719 127.43 38.8438L126.992 39.8828C126.638 39.7318 126.26 39.6042 125.859 39.5C125.458 39.3958 125.049 39.3438 124.633 39.3438C124.034 39.3438 123.573 39.4427 123.25 39.6406C122.932 39.8385 122.773 40.1094 122.773 40.4531C122.773 40.7188 122.846 40.9375 122.992 41.1094C123.143 41.2812 123.383 41.4427 123.711 41.5938C124.039 41.7448 124.471 41.9219 125.008 42.125C125.544 42.3229 126.008 42.5286 126.398 42.7422C126.789 42.9505 127.089 43.2057 127.297 43.5078C127.51 43.8047 127.617 44.1875 127.617 44.6562ZM131 38.4375V47H129.703V38.4375H131ZM130.367 35.2344C130.581 35.2344 130.763 35.3047 130.914 35.4453C131.07 35.5807 131.148 35.7943 131.148 36.0859C131.148 36.3724 131.07 36.5859 130.914 36.7266C130.763 36.8672 130.581 36.9375 130.367 36.9375C130.143 36.9375 129.956 36.8672 129.805 36.7266C129.659 36.5859 129.586 36.3724 129.586 36.0859C129.586 35.7943 129.659 35.5807 129.805 35.4453C129.956 35.3047 130.143 35.2344 130.367 35.2344ZM136.516 46.0938C136.729 46.0938 136.948 46.0755 137.172 46.0391C137.396 46.0026 137.578 45.9583 137.719 45.9062V46.9141C137.568 46.9818 137.357 47.0391 137.086 47.0859C136.82 47.1328 136.56 47.1562 136.305 47.1562C135.852 47.1562 135.44 47.0781 135.07 46.9219C134.701 46.7604 134.404 46.4896 134.18 46.1094C133.961 45.7292 133.852 45.2031 133.852 44.5312V39.4531H132.633V38.8203L133.859 38.3125L134.375 36.4531H135.156V38.4375H137.664V39.4531H135.156V44.4922C135.156 45.0286 135.279 45.4297 135.523 45.6953C135.773 45.9609 136.104 46.0938 136.516 46.0938ZM150.992 42.7031C150.992 43.4062 150.901 44.0339 150.719 44.5859C150.536 45.138 150.273 45.6042 149.93 45.9844C149.586 46.3646 149.169 46.6562 148.68 46.8594C148.195 47.0573 147.646 47.1562 147.031 47.1562C146.458 47.1562 145.932 47.0573 145.453 46.8594C144.979 46.6562 144.568 46.3646 144.219 45.9844C143.875 45.6042 143.607 45.138 143.414 44.5859C143.227 44.0339 143.133 43.4062 143.133 42.7031C143.133 41.7656 143.292 40.9688 143.609 40.3125C143.927 39.651 144.38 39.1484 144.969 38.8047C145.562 38.4557 146.268 38.2812 147.086 38.2812C147.867 38.2812 148.549 38.4557 149.133 38.8047C149.721 39.1536 150.177 39.6589 150.5 40.3203C150.828 40.9766 150.992 41.7708 150.992 42.7031ZM144.477 42.7031C144.477 43.3906 144.568 43.987 144.75 44.4922C144.932 44.9974 145.214 45.388 145.594 45.6641C145.974 45.9401 146.464 46.0781 147.062 46.0781C147.656 46.0781 148.143 45.9401 148.523 45.6641C148.909 45.388 149.193 44.9974 149.375 44.4922C149.557 43.987 149.648 43.3906 149.648 42.7031C149.648 42.0208 149.557 41.4323 149.375 40.9375C149.193 40.4375 148.911 40.0521 148.531 39.7812C148.151 39.5104 147.659 39.375 147.055 39.375C146.164 39.375 145.51 39.6693 145.094 40.2578C144.682 40.8464 144.477 41.6615 144.477 42.7031ZM160.305 38.4375V47H159.242L159.055 45.7969H158.984C158.807 46.0938 158.578 46.3438 158.297 46.5469C158.016 46.75 157.698 46.901 157.344 47C156.995 47.1042 156.622 47.1562 156.227 47.1562C155.549 47.1562 154.982 47.0469 154.523 46.8281C154.065 46.6094 153.719 46.2708 153.484 45.8125C153.255 45.3542 153.141 44.7656 153.141 44.0469V38.4375H154.453V43.9531C154.453 44.6667 154.615 45.2005 154.938 45.5547C155.26 45.9036 155.753 46.0781 156.414 46.0781C157.049 46.0781 157.555 45.9583 157.93 45.7188C158.31 45.4792 158.583 45.1276 158.75 44.6641C158.917 44.1953 159 43.6224 159 42.9453V38.4375H160.305ZM166.938 38.2812C167.109 38.2812 167.289 38.2917 167.477 38.3125C167.664 38.3281 167.831 38.3516 167.977 38.3828L167.812 39.5859C167.672 39.5495 167.516 39.5208 167.344 39.5C167.172 39.4792 167.01 39.4688 166.859 39.4688C166.516 39.4688 166.19 39.5391 165.883 39.6797C165.581 39.8151 165.315 40.013 165.086 40.2734C164.857 40.5286 164.677 40.8385 164.547 41.2031C164.417 41.5625 164.352 41.9635 164.352 42.4062V47H163.047V38.4375H164.125L164.266 40.0156H164.32C164.497 39.6979 164.711 39.4089 164.961 39.1484C165.211 38.8828 165.5 38.6719 165.828 38.5156C166.161 38.3594 166.531 38.2812 166.938 38.2812ZM290.656 39.4531H288.523V47H287.227V39.4531H285.711V38.8281L287.227 38.3984V37.8281C287.227 37.1094 287.333 36.526 287.547 36.0781C287.76 35.625 288.07 35.2917 288.477 35.0781C288.883 34.8646 289.378 34.7578 289.961 34.7578C290.289 34.7578 290.589 34.7865 290.859 34.8438C291.135 34.901 291.378 34.9661 291.586 35.0391L291.25 36.0625C291.073 36.0052 290.872 35.9531 290.648 35.9062C290.43 35.8542 290.206 35.8281 289.977 35.8281C289.482 35.8281 289.115 35.9896 288.875 36.3125C288.641 36.6302 288.523 37.1302 288.523 37.8125V38.4375H290.656V39.4531ZM299.617 42.7031C299.617 43.4062 299.526 44.0339 299.344 44.5859C299.161 45.138 298.898 45.6042 298.555 45.9844C298.211 46.3646 297.794 46.6562 297.305 46.8594C296.82 47.0573 296.271 47.1562 295.656 47.1562C295.083 47.1562 294.557 47.0573 294.078 46.8594C293.604 46.6562 293.193 46.3646 292.844 45.9844C292.5 45.6042 292.232 45.138 292.039 44.5859C291.852 44.0339 291.758 43.4062 291.758 42.7031C291.758 41.7656 291.917 40.9688 292.234 40.3125C292.552 39.651 293.005 39.1484 293.594 38.8047C294.188 38.4557 294.893 38.2812 295.711 38.2812C296.492 38.2812 297.174 38.4557 297.758 38.8047C298.346 39.1536 298.802 39.6589 299.125 40.3203C299.453 40.9766 299.617 41.7708 299.617 42.7031ZM293.102 42.7031C293.102 43.3906 293.193 43.987 293.375 44.4922C293.557 44.9974 293.839 45.388 294.219 45.6641C294.599 45.9401 295.089 46.0781 295.688 46.0781C296.281 46.0781 296.768 45.9401 297.148 45.6641C297.534 45.388 297.818 44.9974 298 44.4922C298.182 43.987 298.273 43.3906 298.273 42.7031C298.273 42.0208 298.182 41.4323 298 40.9375C297.818 40.4375 297.536 40.0521 297.156 39.7812C296.776 39.5104 296.284 39.375 295.68 39.375C294.789 39.375 294.135 39.6693 293.719 40.2578C293.307 40.8464 293.102 41.6615 293.102 42.7031ZM305.75 38.2812C305.922 38.2812 306.102 38.2917 306.289 38.3125C306.477 38.3281 306.643 38.3516 306.789 38.3828L306.625 39.5859C306.484 39.5495 306.328 39.5208 306.156 39.5C305.984 39.4792 305.823 39.4688 305.672 39.4688C305.328 39.4688 305.003 39.5391 304.695 39.6797C304.393 39.8151 304.128 40.013 303.898 40.2734C303.669 40.5286 303.49 40.8385 303.359 41.2031C303.229 41.5625 303.164 41.9635 303.164 42.4062V47H301.859V38.4375H302.938L303.078 40.0156H303.133C303.31 39.6979 303.523 39.4089 303.773 39.1484C304.023 38.8828 304.312 38.6719 304.641 38.5156C304.974 38.3594 305.344 38.2812 305.75 38.2812ZM315.609 47.1562C314.526 47.1562 313.667 46.7865 313.031 46.0469C312.401 45.3073 312.086 44.2083 312.086 42.75C312.086 41.276 312.409 40.1641 313.055 39.4141C313.701 38.6589 314.56 38.2812 315.633 38.2812C316.086 38.2812 316.482 38.3411 316.82 38.4609C317.159 38.5807 317.451 38.7422 317.695 38.9453C317.94 39.1432 318.146 39.3698 318.312 39.625H318.406C318.385 39.4635 318.365 39.2422 318.344 38.9609C318.323 38.6797 318.312 38.4505 318.312 38.2734V34.8438H319.609V47H318.562L318.367 45.7812H318.312C318.151 46.0365 317.945 46.2682 317.695 46.4766C317.451 46.6849 317.156 46.8516 316.812 46.9766C316.474 47.0964 316.073 47.1562 315.609 47.1562ZM315.812 46.0781C316.729 46.0781 317.378 45.8177 317.758 45.2969C318.138 44.776 318.328 44.0026 318.328 42.9766V42.7422C318.328 41.6536 318.146 40.8177 317.781 40.2344C317.422 39.651 316.766 39.3594 315.812 39.3594C315.016 39.3594 314.419 39.6667 314.023 40.2812C313.628 40.8906 313.43 41.724 313.43 42.7812C313.43 43.8333 313.625 44.6458 314.016 45.2188C314.411 45.7917 315.01 46.0781 315.812 46.0781ZM325.562 38.2969C326.583 38.2969 327.341 38.526 327.836 38.9844C328.331 39.4427 328.578 40.1745 328.578 41.1797V47H327.633L327.383 45.7344H327.32C327.081 46.0469 326.831 46.3099 326.57 46.5234C326.31 46.7318 326.008 46.8906 325.664 47C325.326 47.1042 324.909 47.1562 324.414 47.1562C323.893 47.1562 323.43 47.0651 323.023 46.8828C322.622 46.7005 322.305 46.4245 322.07 46.0547C321.841 45.6849 321.727 45.2161 321.727 44.6484C321.727 43.7943 322.065 43.138 322.742 42.6797C323.419 42.2214 324.451 41.9714 325.836 41.9297L327.312 41.8672V41.3438C327.312 40.6042 327.154 40.0859 326.836 39.7891C326.518 39.4922 326.07 39.3438 325.492 39.3438C325.044 39.3438 324.617 39.4089 324.211 39.5391C323.805 39.6693 323.419 39.8229 323.055 40L322.656 39.0156C323.042 38.8177 323.484 38.6484 323.984 38.5078C324.484 38.3672 325.01 38.2969 325.562 38.2969ZM327.297 42.7812L325.992 42.8359C324.924 42.8776 324.172 43.0521 323.734 43.3594C323.297 43.6667 323.078 44.1016 323.078 44.6641C323.078 45.1536 323.227 45.5156 323.523 45.75C323.82 45.9844 324.214 46.1016 324.703 46.1016C325.464 46.1016 326.086 45.8906 326.57 45.4688C327.055 45.0469 327.297 44.4141 327.297 43.5703V42.7812ZM334.016 46.0938C334.229 46.0938 334.448 46.0755 334.672 46.0391C334.896 46.0026 335.078 45.9583 335.219 45.9062V46.9141C335.068 46.9818 334.857 47.0391 334.586 47.0859C334.32 47.1328 334.06 47.1562 333.805 47.1562C333.352 47.1562 332.94 47.0781 332.57 46.9219C332.201 46.7604 331.904 46.4896 331.68 46.1094C331.461 45.7292 331.352 45.2031 331.352 44.5312V39.4531H330.133V38.8203L331.359 38.3125L331.875 36.4531H332.656V38.4375H335.164V39.4531H332.656V44.4922C332.656 45.0286 332.779 45.4297 333.023 45.6953C333.273 45.9609 333.604 46.0938 334.016 46.0938ZM340.156 38.2969C341.177 38.2969 341.935 38.526 342.43 38.9844C342.924 39.4427 343.172 40.1745 343.172 41.1797V47H342.227L341.977 45.7344H341.914C341.674 46.0469 341.424 46.3099 341.164 46.5234C340.904 46.7318 340.602 46.8906 340.258 47C339.919 47.1042 339.503 47.1562 339.008 47.1562C338.487 47.1562 338.023 47.0651 337.617 46.8828C337.216 46.7005 336.898 46.4245 336.664 46.0547C336.435 45.6849 336.32 45.2161 336.32 44.6484C336.32 43.7943 336.659 43.138 337.336 42.6797C338.013 42.2214 339.044 41.9714 340.43 41.9297L341.906 41.8672V41.3438C341.906 40.6042 341.747 40.0859 341.43 39.7891C341.112 39.4922 340.664 39.3438 340.086 39.3438C339.638 39.3438 339.211 39.4089 338.805 39.5391C338.398 39.6693 338.013 39.8229 337.648 40L337.25 39.0156C337.635 38.8177 338.078 38.6484 338.578 38.5078C339.078 38.3672 339.604 38.2969 340.156 38.2969ZM341.891 42.7812L340.586 42.8359C339.518 42.8776 338.766 43.0521 338.328 43.3594C337.891 43.6667 337.672 44.1016 337.672 44.6641C337.672 45.1536 337.82 45.5156 338.117 45.75C338.414 45.9844 338.807 46.1016 339.297 46.1016C340.057 46.1016 340.68 45.8906 341.164 45.4688C341.648 45.0469 341.891 44.4141 341.891 43.5703V42.7812ZM357.07 38.4375V47H356.008L355.82 45.7969H355.75C355.573 46.0938 355.344 46.3438 355.062 46.5469C354.781 46.75 354.464 46.901 354.109 47C353.76 47.1042 353.388 47.1562 352.992 47.1562C352.315 47.1562 351.747 47.0469 351.289 46.8281C350.831 46.6094 350.484 46.2708 350.25 45.8125C350.021 45.3542 349.906 44.7656 349.906 44.0469V38.4375H351.219V43.9531C351.219 44.6667 351.38 45.2005 351.703 45.5547C352.026 45.9036 352.518 46.0781 353.18 46.0781C353.815 46.0781 354.32 45.9583 354.695 45.7188C355.076 45.4792 355.349 45.1276 355.516 44.6641C355.682 44.1953 355.766 43.6224 355.766 42.9453V38.4375H357.07ZM365.352 44.6562C365.352 45.2031 365.214 45.6641 364.938 46.0391C364.667 46.4089 364.276 46.6875 363.766 46.875C363.26 47.0625 362.656 47.1562 361.953 47.1562C361.354 47.1562 360.836 47.1094 360.398 47.0156C359.961 46.9219 359.578 46.7891 359.25 46.6172V45.4219C359.599 45.5938 360.016 45.75 360.5 45.8906C360.984 46.0312 361.479 46.1016 361.984 46.1016C362.724 46.1016 363.26 45.9818 363.594 45.7422C363.927 45.5026 364.094 45.1771 364.094 44.7656C364.094 44.5312 364.026 44.3255 363.891 44.1484C363.76 43.9661 363.539 43.7917 363.227 43.625C362.914 43.4531 362.482 43.2656 361.93 43.0625C361.383 42.8542 360.909 42.6484 360.508 42.4453C360.112 42.237 359.805 41.9844 359.586 41.6875C359.372 41.3906 359.266 41.0052 359.266 40.5312C359.266 39.8073 359.557 39.2526 360.141 38.8672C360.729 38.4766 361.5 38.2812 362.453 38.2812C362.969 38.2812 363.451 38.3333 363.898 38.4375C364.352 38.5365 364.773 38.6719 365.164 38.8438L364.727 39.8828C364.372 39.7318 363.995 39.6042 363.594 39.5C363.193 39.3958 362.784 39.3438 362.367 39.3438C361.768 39.3438 361.307 39.4427 360.984 39.6406C360.667 39.8385 360.508 40.1094 360.508 40.4531C360.508 40.7188 360.581 40.9375 360.727 41.1094C360.878 41.2812 361.117 41.4427 361.445 41.5938C361.773 41.7448 362.206 41.9219 362.742 42.125C363.279 42.3229 363.742 42.5286 364.133 42.7422C364.523 42.9505 364.823 43.2057 365.031 43.5078C365.245 43.8047 365.352 44.1875 365.352 44.6562ZM370.734 38.2812C371.464 38.2812 372.089 38.4427 372.609 38.7656C373.13 39.0885 373.529 39.5417 373.805 40.125C374.081 40.7031 374.219 41.3802 374.219 42.1562V42.9609H368.305C368.32 43.9661 368.57 44.7318 369.055 45.2578C369.539 45.7839 370.221 46.0469 371.102 46.0469C371.643 46.0469 372.122 45.9974 372.539 45.8984C372.956 45.7995 373.388 45.6536 373.836 45.4609V46.6016C373.404 46.7943 372.974 46.9349 372.547 47.0234C372.125 47.112 371.625 47.1562 371.047 47.1562C370.224 47.1562 369.505 46.9896 368.891 46.6562C368.281 46.3177 367.807 45.8229 367.469 45.1719C367.13 44.5208 366.961 43.724 366.961 42.7812C366.961 41.8594 367.115 41.0625 367.422 40.3906C367.734 39.7135 368.172 39.1927 368.734 38.8281C369.302 38.4635 369.969 38.2812 370.734 38.2812ZM370.719 39.3438C370.026 39.3438 369.474 39.5703 369.062 40.0234C368.651 40.4766 368.406 41.1094 368.328 41.9219H372.859C372.854 41.4115 372.773 40.9635 372.617 40.5781C372.466 40.1875 372.234 39.8854 371.922 39.6719C371.609 39.4531 371.208 39.3438 370.719 39.3438ZM32.5625 60.4375V69H31.2656V60.4375H32.5625ZM31.9297 57.2344C32.1432 57.2344 32.3255 57.3047 32.4766 57.4453C32.6328 57.5807 32.7109 57.7943 32.7109 58.0859C32.7109 58.3724 32.6328 58.5859 32.4766 58.7266C32.3255 58.8672 32.1432 58.9375 31.9297 58.9375C31.7057 58.9375 31.5182 58.8672 31.3672 58.7266C31.2214 58.5859 31.1484 58.3724 31.1484 58.0859C31.1484 57.7943 31.2214 57.5807 31.3672 57.4453C31.5182 57.3047 31.7057 57.2344 31.9297 57.2344ZM39.3672 60.2812C40.3828 60.2812 41.151 60.5312 41.6719 61.0312C42.1927 61.526 42.4531 62.3229 42.4531 63.4219V69H41.1719V63.5078C41.1719 62.7943 41.0078 62.2604 40.6797 61.9062C40.3568 61.5521 39.8594 61.375 39.1875 61.375C38.2396 61.375 37.5729 61.6432 37.1875 62.1797C36.8021 62.7161 36.6094 63.4948 36.6094 64.5156V69H35.3125V60.4375H36.3594L36.5547 61.6719H36.625C36.8073 61.3698 37.0391 61.1172 37.3203 60.9141C37.6016 60.7057 37.9167 60.5495 38.2656 60.4453C38.6146 60.3359 38.9818 60.2812 39.3672 60.2812ZM48.9375 61.4531H46.8047V69H45.5078V61.4531H43.9922V60.8281L45.5078 60.3984V59.8281C45.5078 59.1094 45.6146 58.526 45.8281 58.0781C46.0417 57.625 46.3516 57.2917 46.7578 57.0781C47.1641 56.8646 47.6589 56.7578 48.2422 56.7578C48.5703 56.7578 48.8698 56.7865 49.1406 56.8438C49.4167 56.901 49.6589 56.9661 49.8672 57.0391L49.5312 58.0625C49.3542 58.0052 49.1536 57.9531 48.9297 57.9062C48.7109 57.8542 48.487 57.8281 48.2578 57.8281C47.763 57.8281 47.3958 57.9896 47.1562 58.3125C46.9219 58.6302 46.8047 59.1302 46.8047 59.8125V60.4375H48.9375V61.4531ZM57.8984 64.7031C57.8984 65.4062 57.8073 66.0339 57.625 66.5859C57.4427 67.138 57.1797 67.6042 56.8359 67.9844C56.4922 68.3646 56.0755 68.6562 55.5859 68.8594C55.1016 69.0573 54.5521 69.1562 53.9375 69.1562C53.3646 69.1562 52.8385 69.0573 52.3594 68.8594C51.8854 68.6562 51.474 68.3646 51.125 67.9844C50.7812 67.6042 50.513 67.138 50.3203 66.5859C50.1328 66.0339 50.0391 65.4062 50.0391 64.7031C50.0391 63.7656 50.1979 62.9688 50.5156 62.3125C50.8333 61.651 51.2865 61.1484 51.875 60.8047C52.4688 60.4557 53.1745 60.2812 53.9922 60.2812C54.7734 60.2812 55.4557 60.4557 56.0391 60.8047C56.6276 61.1536 57.0833 61.6589 57.4062 62.3203C57.7344 62.9766 57.8984 63.7708 57.8984 64.7031ZM51.3828 64.7031C51.3828 65.3906 51.474 65.987 51.6562 66.4922C51.8385 66.9974 52.1198 67.388 52.5 67.6641C52.8802 67.9401 53.3698 68.0781 53.9688 68.0781C54.5625 68.0781 55.0495 67.9401 55.4297 67.6641C55.8151 67.388 56.099 66.9974 56.2812 66.4922C56.4635 65.987 56.5547 65.3906 56.5547 64.7031C56.5547 64.0208 56.4635 63.4323 56.2812 62.9375C56.099 62.4375 55.8177 62.0521 55.4375 61.7812C55.0573 61.5104 54.5651 61.375 53.9609 61.375C53.0703 61.375 52.4167 61.6693 52 62.2578C51.5885 62.8464 51.3828 63.6615 51.3828 64.7031ZM64.0312 60.2812C64.2031 60.2812 64.3828 60.2917 64.5703 60.3125C64.7578 60.3281 64.9245 60.3516 65.0703 60.3828L64.9062 61.5859C64.7656 61.5495 64.6094 61.5208 64.4375 61.5C64.2656 61.4792 64.1042 61.4688 63.9531 61.4688C63.6094 61.4688 63.2839 61.5391 62.9766 61.6797C62.6745 61.8151 62.4089 62.013 62.1797 62.2734C61.9505 62.5286 61.7708 62.8385 61.6406 63.2031C61.5104 63.5625 61.4453 63.9635 61.4453 64.4062V69H60.1406V60.4375H61.2188L61.3594 62.0156H61.4141C61.5911 61.6979 61.8047 61.4089 62.0547 61.1484C62.3047 60.8828 62.5938 60.6719 62.9219 60.5156C63.2552 60.3594 63.625 60.2812 64.0312 60.2812ZM75.9844 60.2812C76.9271 60.2812 77.638 60.5286 78.1172 61.0234C78.5964 61.513 78.8359 62.3021 78.8359 63.3906V69H77.5547V63.4531C77.5547 62.7604 77.4036 62.2422 77.1016 61.8984C76.8047 61.5495 76.362 61.375 75.7734 61.375C74.9453 61.375 74.3438 61.6146 73.9688 62.0938C73.5938 62.5729 73.4062 63.2786 73.4062 64.2109V69H72.1172V63.4531C72.1172 62.9896 72.0495 62.6042 71.9141 62.2969C71.7839 61.9896 71.5859 61.7604 71.3203 61.6094C71.0599 61.4531 70.7292 61.375 70.3281 61.375C69.7604 61.375 69.3047 61.4922 68.9609 61.7266C68.6172 61.9609 68.3672 62.3099 68.2109 62.7734C68.0599 63.2318 67.9844 63.7969 67.9844 64.4688V69H66.6875V60.4375H67.7344L67.9297 61.6484H68C68.1719 61.3516 68.388 61.1016 68.6484 60.8984C68.9089 60.6953 69.2005 60.5417 69.5234 60.4375C69.8464 60.3333 70.1901 60.2812 70.5547 60.2812C71.2057 60.2812 71.75 60.4036 72.1875 60.6484C72.6302 60.888 72.9505 61.2552 73.1484 61.75H73.2188C73.5 61.2552 73.8854 60.888 74.375 60.6484C74.8646 60.4036 75.401 60.2812 75.9844 60.2812ZM84.7031 60.2969C85.724 60.2969 86.4818 60.526 86.9766 60.9844C87.4714 61.4427 87.7188 62.1745 87.7188 63.1797V69H86.7734L86.5234 67.7344H86.4609C86.2214 68.0469 85.9714 68.3099 85.7109 68.5234C85.4505 68.7318 85.1484 68.8906 84.8047 69C84.4661 69.1042 84.0495 69.1562 83.5547 69.1562C83.0339 69.1562 82.5703 69.0651 82.1641 68.8828C81.763 68.7005 81.4453 68.4245 81.2109 68.0547C80.9818 67.6849 80.8672 67.2161 80.8672 66.6484C80.8672 65.7943 81.2057 65.138 81.8828 64.6797C82.5599 64.2214 83.5911 63.9714 84.9766 63.9297L86.4531 63.8672V63.3438C86.4531 62.6042 86.2943 62.0859 85.9766 61.7891C85.6589 61.4922 85.2109 61.3438 84.6328 61.3438C84.1849 61.3438 83.7578 61.4089 83.3516 61.5391C82.9453 61.6693 82.5599 61.8229 82.1953 62L81.7969 61.0156C82.1823 60.8177 82.625 60.6484 83.125 60.5078C83.625 60.3672 84.151 60.2969 84.7031 60.2969ZM86.4375 64.7812L85.1328 64.8359C84.0651 64.8776 83.3125 65.0521 82.875 65.3594C82.4375 65.6667 82.2188 66.1016 82.2188 66.6641C82.2188 67.1536 82.3672 67.5156 82.6641 67.75C82.9609 67.9844 83.3542 68.1016 83.8438 68.1016C84.6042 68.1016 85.2266 67.8906 85.7109 67.4688C86.1953 67.0469 86.4375 66.4141 86.4375 65.5703V64.7812ZM93.1562 68.0938C93.3698 68.0938 93.5885 68.0755 93.8125 68.0391C94.0365 68.0026 94.2188 67.9583 94.3594 67.9062V68.9141C94.2083 68.9818 93.9974 69.0391 93.7266 69.0859C93.4609 69.1328 93.2005 69.1562 92.9453 69.1562C92.4922 69.1562 92.0807 69.0781 91.7109 68.9219C91.3411 68.7604 91.0443 68.4896 90.8203 68.1094C90.6016 67.7292 90.4922 67.2031 90.4922 66.5312V61.4531H89.2734V60.8203L90.5 60.3125L91.0156 58.4531H91.7969V60.4375H94.3047V61.4531H91.7969V66.4922C91.7969 67.0286 91.9193 67.4297 92.1641 67.6953C92.4141 67.9609 92.7448 68.0938 93.1562 68.0938ZM97.3906 60.4375V69H96.0938V60.4375H97.3906ZM96.7578 57.2344C96.9714 57.2344 97.1536 57.3047 97.3047 57.4453C97.4609 57.5807 97.5391 57.7943 97.5391 58.0859C97.5391 58.3724 97.4609 58.5859 97.3047 58.7266C97.1536 58.8672 96.9714 58.9375 96.7578 58.9375C96.5339 58.9375 96.3464 58.8672 96.1953 58.7266C96.0495 58.5859 95.9766 58.3724 95.9766 58.0859C95.9766 57.7943 96.0495 57.5807 96.1953 57.4453C96.3464 57.3047 96.5339 57.2344 96.7578 57.2344ZM107.523 64.7031C107.523 65.4062 107.432 66.0339 107.25 66.5859C107.068 67.138 106.805 67.6042 106.461 67.9844C106.117 68.3646 105.701 68.6562 105.211 68.8594C104.727 69.0573 104.177 69.1562 103.562 69.1562C102.99 69.1562 102.464 69.0573 101.984 68.8594C101.51 68.6562 101.099 68.3646 100.75 67.9844C100.406 67.6042 100.138 67.138 99.9453 66.5859C99.7578 66.0339 99.6641 65.4062 99.6641 64.7031C99.6641 63.7656 99.8229 62.9688 100.141 62.3125C100.458 61.651 100.911 61.1484 101.5 60.8047C102.094 60.4557 102.799 60.2812 103.617 60.2812C104.398 60.2812 105.081 60.4557 105.664 60.8047C106.253 61.1536 106.708 61.6589 107.031 62.3203C107.359 62.9766 107.523 63.7708 107.523 64.7031ZM101.008 64.7031C101.008 65.3906 101.099 65.987 101.281 66.4922C101.464 66.9974 101.745 67.388 102.125 67.6641C102.505 67.9401 102.995 68.0781 103.594 68.0781C104.188 68.0781 104.674 67.9401 105.055 67.6641C105.44 67.388 105.724 66.9974 105.906 66.4922C106.089 65.987 106.18 65.3906 106.18 64.7031C106.18 64.0208 106.089 63.4323 105.906 62.9375C105.724 62.4375 105.443 62.0521 105.062 61.7812C104.682 61.5104 104.19 61.375 103.586 61.375C102.695 61.375 102.042 61.6693 101.625 62.2578C101.214 62.8464 101.008 63.6615 101.008 64.7031ZM113.82 60.2812C114.836 60.2812 115.604 60.5312 116.125 61.0312C116.646 61.526 116.906 62.3229 116.906 63.4219V69H115.625V63.5078C115.625 62.7943 115.461 62.2604 115.133 61.9062C114.81 61.5521 114.312 61.375 113.641 61.375C112.693 61.375 112.026 61.6432 111.641 62.1797C111.255 62.7161 111.062 63.4948 111.062 64.5156V69H109.766V60.4375H110.812L111.008 61.6719H111.078C111.26 61.3698 111.492 61.1172 111.773 60.9141C112.055 60.7057 112.37 60.5495 112.719 60.4453C113.068 60.3359 113.435 60.2812 113.82 60.2812ZM119.383 68.1875C119.383 67.8229 119.471 67.5651 119.648 67.4141C119.826 67.2578 120.042 67.1797 120.297 67.1797C120.562 67.1797 120.786 67.2578 120.969 67.4141C121.151 67.5651 121.242 67.8229 121.242 68.1875C121.242 68.5469 121.151 68.8099 120.969 68.9766C120.786 69.138 120.562 69.2188 120.297 69.2188C120.042 69.2188 119.826 69.138 119.648 68.9766C119.471 68.8099 119.383 68.5469 119.383 68.1875ZM131.641 69H130.305V58.75H126.711V57.5781H135.219V58.75H131.641V69ZM144.133 64.7031C144.133 65.4062 144.042 66.0339 143.859 66.5859C143.677 67.138 143.414 67.6042 143.07 67.9844C142.727 68.3646 142.31 68.6562 141.82 68.8594C141.336 69.0573 140.786 69.1562 140.172 69.1562C139.599 69.1562 139.073 69.0573 138.594 68.8594C138.12 68.6562 137.708 68.3646 137.359 67.9844C137.016 67.6042 136.747 67.138 136.555 66.5859C136.367 66.0339 136.273 65.4062 136.273 64.7031C136.273 63.7656 136.432 62.9688 136.75 62.3125C137.068 61.651 137.521 61.1484 138.109 60.8047C138.703 60.4557 139.409 60.2812 140.227 60.2812C141.008 60.2812 141.69 60.4557 142.273 60.8047C142.862 61.1536 143.318 61.6589 143.641 62.3203C143.969 62.9766 144.133 63.7708 144.133 64.7031ZM137.617 64.7031C137.617 65.3906 137.708 65.987 137.891 66.4922C138.073 66.9974 138.354 67.388 138.734 67.6641C139.115 67.9401 139.604 68.0781 140.203 68.0781C140.797 68.0781 141.284 67.9401 141.664 67.6641C142.049 67.388 142.333 66.9974 142.516 66.4922C142.698 65.987 142.789 65.3906 142.789 64.7031C142.789 64.0208 142.698 63.4323 142.516 62.9375C142.333 62.4375 142.052 62.0521 141.672 61.7812C141.292 61.5104 140.799 61.375 140.195 61.375C139.305 61.375 138.651 61.6693 138.234 62.2578C137.823 62.8464 137.617 63.6615 137.617 64.7031ZM157.914 64.7031C157.914 65.4062 157.823 66.0339 157.641 66.5859C157.458 67.138 157.195 67.6042 156.852 67.9844C156.508 68.3646 156.091 68.6562 155.602 68.8594C155.117 69.0573 154.568 69.1562 153.953 69.1562C153.38 69.1562 152.854 69.0573 152.375 68.8594C151.901 68.6562 151.49 68.3646 151.141 67.9844C150.797 67.6042 150.529 67.138 150.336 66.5859C150.148 66.0339 150.055 65.4062 150.055 64.7031C150.055 63.7656 150.214 62.9688 150.531 62.3125C150.849 61.651 151.302 61.1484 151.891 60.8047C152.484 60.4557 153.19 60.2812 154.008 60.2812C154.789 60.2812 155.471 60.4557 156.055 60.8047C156.643 61.1536 157.099 61.6589 157.422 62.3203C157.75 62.9766 157.914 63.7708 157.914 64.7031ZM151.398 64.7031C151.398 65.3906 151.49 65.987 151.672 66.4922C151.854 66.9974 152.135 67.388 152.516 67.6641C152.896 67.9401 153.385 68.0781 153.984 68.0781C154.578 68.0781 155.065 67.9401 155.445 67.6641C155.831 67.388 156.115 66.9974 156.297 66.4922C156.479 65.987 156.57 65.3906 156.57 64.7031C156.57 64.0208 156.479 63.4323 156.297 62.9375C156.115 62.4375 155.833 62.0521 155.453 61.7812C155.073 61.5104 154.581 61.375 153.977 61.375C153.086 61.375 152.432 61.6693 152.016 62.2578C151.604 62.8464 151.398 63.6615 151.398 64.7031ZM164.18 60.2812C165.247 60.2812 166.099 60.6484 166.734 61.3828C167.37 62.1172 167.688 63.2214 167.688 64.6953C167.688 65.6693 167.542 66.487 167.25 67.1484C166.958 67.8099 166.547 68.3099 166.016 68.6484C165.49 68.987 164.867 69.1562 164.148 69.1562C163.695 69.1562 163.297 69.0964 162.953 68.9766C162.609 68.8568 162.315 68.6953 162.07 68.4922C161.826 68.2891 161.622 68.0677 161.461 67.8281H161.367C161.383 68.0312 161.401 68.276 161.422 68.5625C161.448 68.849 161.461 69.099 161.461 69.3125V72.8281H160.156V60.4375H161.227L161.398 61.7031H161.461C161.628 61.4427 161.831 61.2057 162.07 60.9922C162.31 60.7734 162.602 60.6016 162.945 60.4766C163.294 60.3464 163.706 60.2812 164.18 60.2812ZM163.953 61.375C163.359 61.375 162.88 61.4896 162.516 61.7188C162.156 61.9479 161.893 62.2917 161.727 62.75C161.56 63.2031 161.471 63.7734 161.461 64.4609V64.7109C161.461 65.4349 161.539 66.0469 161.695 66.5469C161.857 67.0469 162.12 67.4271 162.484 67.6875C162.854 67.9479 163.349 68.0781 163.969 68.0781C164.5 68.0781 164.943 67.9349 165.297 67.6484C165.651 67.362 165.914 66.9635 166.086 66.4531C166.263 65.9375 166.352 65.3464 166.352 64.6797C166.352 63.6693 166.154 62.8672 165.758 62.2734C165.367 61.6745 164.766 61.375 163.953 61.375ZM172.719 68.0938C172.932 68.0938 173.151 68.0755 173.375 68.0391C173.599 68.0026 173.781 67.9583 173.922 67.9062V68.9141C173.771 68.9818 173.56 69.0391 173.289 69.0859C173.023 69.1328 172.763 69.1562 172.508 69.1562C172.055 69.1562 171.643 69.0781 171.273 68.9219C170.904 68.7604 170.607 68.4896 170.383 68.1094C170.164 67.7292 170.055 67.2031 170.055 66.5312V61.4531H168.836V60.8203L170.062 60.3125L170.578 58.4531H171.359V60.4375H173.867V61.4531H171.359V66.4922C171.359 67.0286 171.482 67.4297 171.727 67.6953C171.977 67.9609 172.307 68.0938 172.719 68.0938ZM187.195 64.7031C187.195 65.4062 187.104 66.0339 186.922 66.5859C186.74 67.138 186.477 67.6042 186.133 67.9844C185.789 68.3646 185.372 68.6562 184.883 68.8594C184.398 69.0573 183.849 69.1562 183.234 69.1562C182.661 69.1562 182.135 69.0573 181.656 68.8594C181.182 68.6562 180.771 68.3646 180.422 67.9844C180.078 67.6042 179.81 67.138 179.617 66.5859C179.43 66.0339 179.336 65.4062 179.336 64.7031C179.336 63.7656 179.495 62.9688 179.812 62.3125C180.13 61.651 180.583 61.1484 181.172 60.8047C181.766 60.4557 182.471 60.2812 183.289 60.2812C184.07 60.2812 184.753 60.4557 185.336 60.8047C185.924 61.1536 186.38 61.6589 186.703 62.3203C187.031 62.9766 187.195 63.7708 187.195 64.7031ZM180.68 64.7031C180.68 65.3906 180.771 65.987 180.953 66.4922C181.135 66.9974 181.417 67.388 181.797 67.6641C182.177 67.9401 182.667 68.0781 183.266 68.0781C183.859 68.0781 184.346 67.9401 184.727 67.6641C185.112 67.388 185.396 66.9974 185.578 66.4922C185.76 65.987 185.852 65.3906 185.852 64.7031C185.852 64.0208 185.76 63.4323 185.578 62.9375C185.396 62.4375 185.115 62.0521 184.734 61.7812C184.354 61.5104 183.862 61.375 183.258 61.375C182.367 61.375 181.714 61.6693 181.297 62.2578C180.885 62.8464 180.68 63.6615 180.68 64.7031ZM196.508 60.4375V69H195.445L195.258 67.7969H195.188C195.01 68.0938 194.781 68.3438 194.5 68.5469C194.219 68.75 193.901 68.901 193.547 69C193.198 69.1042 192.826 69.1562 192.43 69.1562C191.753 69.1562 191.185 69.0469 190.727 68.8281C190.268 68.6094 189.922 68.2708 189.688 67.8125C189.458 67.3542 189.344 66.7656 189.344 66.0469V60.4375H190.656V65.9531C190.656 66.6667 190.818 67.2005 191.141 67.5547C191.464 67.9036 191.956 68.0781 192.617 68.0781C193.253 68.0781 193.758 67.9583 194.133 67.7188C194.513 67.4792 194.786 67.1276 194.953 66.6641C195.12 66.1953 195.203 65.6224 195.203 64.9453V60.4375H196.508ZM202.016 68.0938C202.229 68.0938 202.448 68.0755 202.672 68.0391C202.896 68.0026 203.078 67.9583 203.219 67.9062V68.9141C203.068 68.9818 202.857 69.0391 202.586 69.0859C202.32 69.1328 202.06 69.1562 201.805 69.1562C201.352 69.1562 200.94 69.0781 200.57 68.9219C200.201 68.7604 199.904 68.4896 199.68 68.1094C199.461 67.7292 199.352 67.2031 199.352 66.5312V61.4531H198.133V60.8203L199.359 60.3125L199.875 58.4531H200.656V60.4375H203.164V61.4531H200.656V66.4922C200.656 67.0286 200.779 67.4297 201.023 67.6953C201.273 67.9609 201.604 68.0938 202.016 68.0938ZM206.438 67.1406L206.539 67.3203C206.445 67.7005 206.326 68.1068 206.18 68.5391C206.039 68.9714 205.883 69.4036 205.711 69.8359C205.544 70.2734 205.375 70.6823 205.203 71.0625H204.234C204.344 70.6458 204.451 70.2057 204.555 69.7422C204.659 69.2839 204.753 68.8307 204.836 68.3828C204.924 67.9297 204.995 67.5156 205.047 67.1406H206.438ZM217.273 60.2812C218.341 60.2812 219.193 60.6484 219.828 61.3828C220.464 62.1172 220.781 63.2214 220.781 64.6953C220.781 65.6693 220.635 66.487 220.344 67.1484C220.052 67.8099 219.641 68.3099 219.109 68.6484C218.583 68.987 217.961 69.1562 217.242 69.1562C216.789 69.1562 216.391 69.0964 216.047 68.9766C215.703 68.8568 215.409 68.6953 215.164 68.4922C214.919 68.2891 214.716 68.0677 214.555 67.8281H214.461C214.477 68.0312 214.495 68.276 214.516 68.5625C214.542 68.849 214.555 69.099 214.555 69.3125V72.8281H213.25V60.4375H214.32L214.492 61.7031H214.555C214.721 61.4427 214.924 61.2057 215.164 60.9922C215.404 60.7734 215.695 60.6016 216.039 60.4766C216.388 60.3464 216.799 60.2812 217.273 60.2812ZM217.047 61.375C216.453 61.375 215.974 61.4896 215.609 61.7188C215.25 61.9479 214.987 62.2917 214.82 62.75C214.654 63.2031 214.565 63.7734 214.555 64.4609V64.7109C214.555 65.4349 214.633 66.0469 214.789 66.5469C214.951 67.0469 215.214 67.4271 215.578 67.6875C215.948 67.9479 216.443 68.0781 217.062 68.0781C217.594 68.0781 218.036 67.9349 218.391 67.6484C218.745 67.362 219.008 66.9635 219.18 66.4531C219.357 65.9375 219.445 65.3464 219.445 64.6797C219.445 63.6693 219.247 62.8672 218.852 62.2734C218.461 61.6745 217.859 61.375 217.047 61.375ZM224.352 69H223.047V56.8438H224.352V69ZM230.391 60.2812C231.12 60.2812 231.745 60.4427 232.266 60.7656C232.786 61.0885 233.185 61.5417 233.461 62.125C233.737 62.7031 233.875 63.3802 233.875 64.1562V64.9609H227.961C227.977 65.9661 228.227 66.7318 228.711 67.2578C229.195 67.7839 229.878 68.0469 230.758 68.0469C231.299 68.0469 231.779 67.9974 232.195 67.8984C232.612 67.7995 233.044 67.6536 233.492 67.4609V68.6016C233.06 68.7943 232.63 68.9349 232.203 69.0234C231.781 69.112 231.281 69.1562 230.703 69.1562C229.88 69.1562 229.161 68.9896 228.547 68.6562C227.938 68.3177 227.464 67.8229 227.125 67.1719C226.786 66.5208 226.617 65.724 226.617 64.7812C226.617 63.8594 226.771 63.0625 227.078 62.3906C227.391 61.7135 227.828 61.1927 228.391 60.8281C228.958 60.4635 229.625 60.2812 230.391 60.2812ZM230.375 61.3438C229.682 61.3438 229.13 61.5703 228.719 62.0234C228.307 62.4766 228.062 63.1094 227.984 63.9219H232.516C232.51 63.4115 232.43 62.9635 232.273 62.5781C232.122 62.1875 231.891 61.8854 231.578 61.6719C231.266 61.4531 230.865 61.3438 230.375 61.3438ZM239.281 60.2969C240.302 60.2969 241.06 60.526 241.555 60.9844C242.049 61.4427 242.297 62.1745 242.297 63.1797V69H241.352L241.102 67.7344H241.039C240.799 68.0469 240.549 68.3099 240.289 68.5234C240.029 68.7318 239.727 68.8906 239.383 69C239.044 69.1042 238.628 69.1562 238.133 69.1562C237.612 69.1562 237.148 69.0651 236.742 68.8828C236.341 68.7005 236.023 68.4245 235.789 68.0547C235.56 67.6849 235.445 67.2161 235.445 66.6484C235.445 65.7943 235.784 65.138 236.461 64.6797C237.138 64.2214 238.169 63.9714 239.555 63.9297L241.031 63.8672V63.3438C241.031 62.6042 240.872 62.0859 240.555 61.7891C240.237 61.4922 239.789 61.3438 239.211 61.3438C238.763 61.3438 238.336 61.4089 237.93 61.5391C237.523 61.6693 237.138 61.8229 236.773 62L236.375 61.0156C236.76 60.8177 237.203 60.6484 237.703 60.5078C238.203 60.3672 238.729 60.2969 239.281 60.2969ZM241.016 64.7812L239.711 64.8359C238.643 64.8776 237.891 65.0521 237.453 65.3594C237.016 65.6667 236.797 66.1016 236.797 66.6641C236.797 67.1536 236.945 67.5156 237.242 67.75C237.539 67.9844 237.932 68.1016 238.422 68.1016C239.182 68.1016 239.805 67.8906 240.289 67.4688C240.773 67.0469 241.016 66.4141 241.016 65.5703V64.7812ZM250.508 66.6562C250.508 67.2031 250.37 67.6641 250.094 68.0391C249.823 68.4089 249.432 68.6875 248.922 68.875C248.417 69.0625 247.812 69.1562 247.109 69.1562C246.51 69.1562 245.992 69.1094 245.555 69.0156C245.117 68.9219 244.734 68.7891 244.406 68.6172V67.4219C244.755 67.5938 245.172 67.75 245.656 67.8906C246.141 68.0312 246.635 68.1016 247.141 68.1016C247.88 68.1016 248.417 67.9818 248.75 67.7422C249.083 67.5026 249.25 67.1771 249.25 66.7656C249.25 66.5312 249.182 66.3255 249.047 66.1484C248.917 65.9661 248.695 65.7917 248.383 65.625C248.07 65.4531 247.638 65.2656 247.086 65.0625C246.539 64.8542 246.065 64.6484 245.664 64.4453C245.268 64.237 244.961 63.9844 244.742 63.6875C244.529 63.3906 244.422 63.0052 244.422 62.5312C244.422 61.8073 244.714 61.2526 245.297 60.8672C245.885 60.4766 246.656 60.2812 247.609 60.2812C248.125 60.2812 248.607 60.3333 249.055 60.4375C249.508 60.5365 249.93 60.6719 250.32 60.8438L249.883 61.8828C249.529 61.7318 249.151 61.6042 248.75 61.5C248.349 61.3958 247.94 61.3438 247.523 61.3438C246.924 61.3438 246.464 61.4427 246.141 61.6406C245.823 61.8385 245.664 62.1094 245.664 62.4531C245.664 62.7188 245.737 62.9375 245.883 63.1094C246.034 63.2812 246.273 63.4427 246.602 63.5938C246.93 63.7448 247.362 63.9219 247.898 64.125C248.435 64.3229 248.898 64.5286 249.289 64.7422C249.68 64.9505 249.979 65.2057 250.188 65.5078C250.401 65.8047 250.508 66.1875 250.508 66.6562ZM255.891 60.2812C256.62 60.2812 257.245 60.4427 257.766 60.7656C258.286 61.0885 258.685 61.5417 258.961 62.125C259.237 62.7031 259.375 63.3802 259.375 64.1562V64.9609H253.461C253.477 65.9661 253.727 66.7318 254.211 67.2578C254.695 67.7839 255.378 68.0469 256.258 68.0469C256.799 68.0469 257.279 67.9974 257.695 67.8984C258.112 67.7995 258.544 67.6536 258.992 67.4609V68.6016C258.56 68.7943 258.13 68.9349 257.703 69.0234C257.281 69.112 256.781 69.1562 256.203 69.1562C255.38 69.1562 254.661 68.9896 254.047 68.6562C253.438 68.3177 252.964 67.8229 252.625 67.1719C252.286 66.5208 252.117 65.724 252.117 64.7812C252.117 63.8594 252.271 63.0625 252.578 62.3906C252.891 61.7135 253.328 61.1927 253.891 60.8281C254.458 60.4635 255.125 60.2812 255.891 60.2812ZM255.875 61.3438C255.182 61.3438 254.63 61.5703 254.219 62.0234C253.807 62.4766 253.562 63.1094 253.484 63.9219H258.016C258.01 63.4115 257.93 62.9635 257.773 62.5781C257.622 62.1875 257.391 61.8854 257.078 61.6719C256.766 61.4531 256.365 61.3438 255.875 61.3438ZM269.164 69.1562C268.393 69.1562 267.714 68.9974 267.125 68.6797C266.536 68.362 266.078 67.8776 265.75 67.2266C265.422 66.5755 265.258 65.7552 265.258 64.7656C265.258 63.7292 265.43 62.8828 265.773 62.2266C266.122 61.5651 266.602 61.0755 267.211 60.7578C267.82 60.4401 268.513 60.2812 269.289 60.2812C269.716 60.2812 270.128 60.3255 270.523 60.4141C270.924 60.4974 271.253 60.6042 271.508 60.7344L271.117 61.8203C270.857 61.7161 270.555 61.6224 270.211 61.5391C269.872 61.4557 269.555 61.4141 269.258 61.4141C268.664 61.4141 268.169 61.5417 267.773 61.7969C267.383 62.0521 267.089 62.4271 266.891 62.9219C266.698 63.4167 266.602 64.026 266.602 64.75C266.602 65.4427 266.695 66.0339 266.883 66.5234C267.076 67.013 267.359 67.388 267.734 67.6484C268.115 67.9036 268.589 68.0312 269.156 68.0312C269.609 68.0312 270.018 67.9844 270.383 67.8906C270.747 67.7917 271.078 67.6771 271.375 67.5469V68.7031C271.089 68.849 270.768 68.9609 270.414 69.0391C270.065 69.1172 269.648 69.1562 269.164 69.1562ZM274.711 69H273.406V56.8438H274.711V69ZM284.836 64.7031C284.836 65.4062 284.745 66.0339 284.562 66.5859C284.38 67.138 284.117 67.6042 283.773 67.9844C283.43 68.3646 283.013 68.6562 282.523 68.8594C282.039 69.0573 281.49 69.1562 280.875 69.1562C280.302 69.1562 279.776 69.0573 279.297 68.8594C278.823 68.6562 278.411 68.3646 278.062 67.9844C277.719 67.6042 277.451 67.138 277.258 66.5859C277.07 66.0339 276.977 65.4062 276.977 64.7031C276.977 63.7656 277.135 62.9688 277.453 62.3125C277.771 61.651 278.224 61.1484 278.812 60.8047C279.406 60.4557 280.112 60.2812 280.93 60.2812C281.711 60.2812 282.393 60.4557 282.977 60.8047C283.565 61.1536 284.021 61.6589 284.344 62.3203C284.672 62.9766 284.836 63.7708 284.836 64.7031ZM278.32 64.7031C278.32 65.3906 278.411 65.987 278.594 66.4922C278.776 66.9974 279.057 67.388 279.438 67.6641C279.818 67.9401 280.307 68.0781 280.906 68.0781C281.5 68.0781 281.987 67.9401 282.367 67.6641C282.753 67.388 283.036 66.9974 283.219 66.4922C283.401 65.987 283.492 65.3906 283.492 64.7031C283.492 64.0208 283.401 63.4323 283.219 62.9375C283.036 62.4375 282.755 62.0521 282.375 61.7812C281.995 61.5104 281.503 61.375 280.898 61.375C280.008 61.375 279.354 61.6693 278.938 62.2578C278.526 62.8464 278.32 63.6615 278.32 64.7031ZM292.617 66.6562C292.617 67.2031 292.479 67.6641 292.203 68.0391C291.932 68.4089 291.542 68.6875 291.031 68.875C290.526 69.0625 289.922 69.1562 289.219 69.1562C288.62 69.1562 288.102 69.1094 287.664 69.0156C287.227 68.9219 286.844 68.7891 286.516 68.6172V67.4219C286.865 67.5938 287.281 67.75 287.766 67.8906C288.25 68.0312 288.745 68.1016 289.25 68.1016C289.99 68.1016 290.526 67.9818 290.859 67.7422C291.193 67.5026 291.359 67.1771 291.359 66.7656C291.359 66.5312 291.292 66.3255 291.156 66.1484C291.026 65.9661 290.805 65.7917 290.492 65.625C290.18 65.4531 289.747 65.2656 289.195 65.0625C288.648 64.8542 288.174 64.6484 287.773 64.4453C287.378 64.237 287.07 63.9844 286.852 63.6875C286.638 63.3906 286.531 63.0052 286.531 62.5312C286.531 61.8073 286.823 61.2526 287.406 60.8672C287.995 60.4766 288.766 60.2812 289.719 60.2812C290.234 60.2812 290.716 60.3333 291.164 60.4375C291.617 60.5365 292.039 60.6719 292.43 60.8438L291.992 61.8828C291.638 61.7318 291.26 61.6042 290.859 61.5C290.458 61.3958 290.049 61.3438 289.633 61.3438C289.034 61.3438 288.573 61.4427 288.25 61.6406C287.932 61.8385 287.773 62.1094 287.773 62.4531C287.773 62.7188 287.846 62.9375 287.992 63.1094C288.143 63.2812 288.383 63.4427 288.711 63.5938C289.039 63.7448 289.471 63.9219 290.008 64.125C290.544 64.3229 291.008 64.5286 291.398 64.7422C291.789 64.9505 292.089 65.2057 292.297 65.5078C292.51 65.8047 292.617 66.1875 292.617 66.6562ZM298 60.2812C298.729 60.2812 299.354 60.4427 299.875 60.7656C300.396 61.0885 300.794 61.5417 301.07 62.125C301.346 62.7031 301.484 63.3802 301.484 64.1562V64.9609H295.57C295.586 65.9661 295.836 66.7318 296.32 67.2578C296.805 67.7839 297.487 68.0469 298.367 68.0469C298.909 68.0469 299.388 67.9974 299.805 67.8984C300.221 67.7995 300.654 67.6536 301.102 67.4609V68.6016C300.669 68.7943 300.24 68.9349 299.812 69.0234C299.391 69.112 298.891 69.1562 298.312 69.1562C297.49 69.1562 296.771 68.9896 296.156 68.6562C295.547 68.3177 295.073 67.8229 294.734 67.1719C294.396 66.5208 294.227 65.724 294.227 64.7812C294.227 63.8594 294.38 63.0625 294.688 62.3906C295 61.7135 295.438 61.1927 296 60.8281C296.568 60.4635 297.234 60.2812 298 60.2812ZM297.984 61.3438C297.292 61.3438 296.74 61.5703 296.328 62.0234C295.917 62.4766 295.672 63.1094 295.594 63.9219H300.125C300.12 63.4115 300.039 62.9635 299.883 62.5781C299.732 62.1875 299.5 61.8854 299.188 61.6719C298.875 61.4531 298.474 61.3438 297.984 61.3438ZM310.609 68.0938C310.823 68.0938 311.042 68.0755 311.266 68.0391C311.49 68.0026 311.672 67.9583 311.812 67.9062V68.9141C311.661 68.9818 311.451 69.0391 311.18 69.0859C310.914 69.1328 310.654 69.1562 310.398 69.1562C309.945 69.1562 309.534 69.0781 309.164 68.9219C308.794 68.7604 308.497 68.4896 308.273 68.1094C308.055 67.7292 307.945 67.2031 307.945 66.5312V61.4531H306.727V60.8203L307.953 60.3125L308.469 58.4531H309.25V60.4375H311.758V61.4531H309.25V66.4922C309.25 67.0286 309.372 67.4297 309.617 67.6953C309.867 67.9609 310.198 68.0938 310.609 68.0938ZM314.844 56.8438V60.4766C314.844 60.6849 314.839 60.8958 314.828 61.1094C314.818 61.3177 314.799 61.5104 314.773 61.6875H314.859C315.036 61.3854 315.26 61.1328 315.531 60.9297C315.807 60.7214 316.12 60.5651 316.469 60.4609C316.818 60.3516 317.188 60.2969 317.578 60.2969C318.266 60.2969 318.839 60.4062 319.297 60.625C319.76 60.8438 320.107 61.1823 320.336 61.6406C320.57 62.099 320.688 62.6927 320.688 63.4219V69H319.406V63.5078C319.406 62.7943 319.242 62.2604 318.914 61.9062C318.591 61.5521 318.094 61.375 317.422 61.375C316.786 61.375 316.279 61.4974 315.898 61.7422C315.523 61.9818 315.253 62.3359 315.086 62.8047C314.924 63.2734 314.844 63.8464 314.844 64.5234V69H313.547V56.8438H314.844ZM324.656 60.4375V69H323.359V60.4375H324.656ZM324.023 57.2344C324.237 57.2344 324.419 57.3047 324.57 57.4453C324.727 57.5807 324.805 57.7943 324.805 58.0859C324.805 58.3724 324.727 58.5859 324.57 58.7266C324.419 58.8672 324.237 58.9375 324.023 58.9375C323.799 58.9375 323.612 58.8672 323.461 58.7266C323.315 58.5859 323.242 58.3724 323.242 58.0859C323.242 57.7943 323.315 57.5807 323.461 57.4453C323.612 57.3047 323.799 57.2344 324.023 57.2344ZM332.945 66.6562C332.945 67.2031 332.807 67.6641 332.531 68.0391C332.26 68.4089 331.87 68.6875 331.359 68.875C330.854 69.0625 330.25 69.1562 329.547 69.1562C328.948 69.1562 328.43 69.1094 327.992 69.0156C327.555 68.9219 327.172 68.7891 326.844 68.6172V67.4219C327.193 67.5938 327.609 67.75 328.094 67.8906C328.578 68.0312 329.073 68.1016 329.578 68.1016C330.318 68.1016 330.854 67.9818 331.188 67.7422C331.521 67.5026 331.688 67.1771 331.688 66.7656C331.688 66.5312 331.62 66.3255 331.484 66.1484C331.354 65.9661 331.133 65.7917 330.82 65.625C330.508 65.4531 330.076 65.2656 329.523 65.0625C328.977 64.8542 328.503 64.6484 328.102 64.4453C327.706 64.237 327.398 63.9844 327.18 63.6875C326.966 63.3906 326.859 63.0052 326.859 62.5312C326.859 61.8073 327.151 61.2526 327.734 60.8672C328.323 60.4766 329.094 60.2812 330.047 60.2812C330.562 60.2812 331.044 60.3333 331.492 60.4375C331.945 60.5365 332.367 60.6719 332.758 60.8438L332.32 61.8828C331.966 61.7318 331.589 61.6042 331.188 61.5C330.786 61.3958 330.378 61.3438 329.961 61.3438C329.362 61.3438 328.901 61.4427 328.578 61.6406C328.26 61.8385 328.102 62.1094 328.102 62.4531C328.102 62.7188 328.174 62.9375 328.32 63.1094C328.471 63.2812 328.711 63.4427 329.039 63.5938C329.367 63.7448 329.799 63.9219 330.336 64.125C330.872 64.3229 331.336 64.5286 331.727 64.7422C332.117 64.9505 332.417 65.2057 332.625 65.5078C332.839 65.8047 332.945 66.1875 332.945 66.6562ZM342.617 69.1562C341.846 69.1562 341.167 68.9974 340.578 68.6797C339.99 68.362 339.531 67.8776 339.203 67.2266C338.875 66.5755 338.711 65.7552 338.711 64.7656C338.711 63.7292 338.883 62.8828 339.227 62.2266C339.576 61.5651 340.055 61.0755 340.664 60.7578C341.273 60.4401 341.966 60.2812 342.742 60.2812C343.169 60.2812 343.581 60.3255 343.977 60.4141C344.378 60.4974 344.706 60.6042 344.961 60.7344L344.57 61.8203C344.31 61.7161 344.008 61.6224 343.664 61.5391C343.326 61.4557 343.008 61.4141 342.711 61.4141C342.117 61.4141 341.622 61.5417 341.227 61.7969C340.836 62.0521 340.542 62.4271 340.344 62.9219C340.151 63.4167 340.055 64.026 340.055 64.75C340.055 65.4427 340.148 66.0339 340.336 66.5234C340.529 67.013 340.812 67.388 341.188 67.6484C341.568 67.9036 342.042 68.0312 342.609 68.0312C343.062 68.0312 343.471 67.9844 343.836 67.8906C344.201 67.7917 344.531 67.6771 344.828 67.5469V68.7031C344.542 68.849 344.221 68.9609 343.867 69.0391C343.518 69.1172 343.102 69.1562 342.617 69.1562ZM348.156 56.8438V60.4766C348.156 60.6849 348.151 60.8958 348.141 61.1094C348.13 61.3177 348.112 61.5104 348.086 61.6875H348.172C348.349 61.3854 348.573 61.1328 348.844 60.9297C349.12 60.7214 349.432 60.5651 349.781 60.4609C350.13 60.3516 350.5 60.2969 350.891 60.2969C351.578 60.2969 352.151 60.4062 352.609 60.625C353.073 60.8438 353.419 61.1823 353.648 61.6406C353.883 62.099 354 62.6927 354 63.4219V69H352.719V63.5078C352.719 62.7943 352.555 62.2604 352.227 61.9062C351.904 61.5521 351.406 61.375 350.734 61.375C350.099 61.375 349.591 61.4974 349.211 61.7422C348.836 61.9818 348.565 62.3359 348.398 62.8047C348.237 63.2734 348.156 63.8464 348.156 64.5234V69H346.859V56.8438H348.156ZM359.875 60.2969C360.896 60.2969 361.654 60.526 362.148 60.9844C362.643 61.4427 362.891 62.1745 362.891 63.1797V69H361.945L361.695 67.7344H361.633C361.393 68.0469 361.143 68.3099 360.883 68.5234C360.622 68.7318 360.32 68.8906 359.977 69C359.638 69.1042 359.221 69.1562 358.727 69.1562C358.206 69.1562 357.742 69.0651 357.336 68.8828C356.935 68.7005 356.617 68.4245 356.383 68.0547C356.154 67.6849 356.039 67.2161 356.039 66.6484C356.039 65.7943 356.378 65.138 357.055 64.6797C357.732 64.2214 358.763 63.9714 360.148 63.9297L361.625 63.8672V63.3438C361.625 62.6042 361.466 62.0859 361.148 61.7891C360.831 61.4922 360.383 61.3438 359.805 61.3438C359.357 61.3438 358.93 61.4089 358.523 61.5391C358.117 61.6693 357.732 61.8229 357.367 62L356.969 61.0156C357.354 60.8177 357.797 60.6484 358.297 60.5078C358.797 60.3672 359.323 60.2969 359.875 60.2969ZM361.609 64.7812L360.305 64.8359C359.237 64.8776 358.484 65.0521 358.047 65.3594C357.609 65.6667 357.391 66.1016 357.391 66.6641C357.391 67.1536 357.539 67.5156 357.836 67.75C358.133 67.9844 358.526 68.1016 359.016 68.1016C359.776 68.1016 360.398 67.8906 360.883 67.4688C361.367 67.0469 361.609 66.4141 361.609 65.5703V64.7812ZM368.328 68.0938C368.542 68.0938 368.76 68.0755 368.984 68.0391C369.208 68.0026 369.391 67.9583 369.531 67.9062V68.9141C369.38 68.9818 369.169 69.0391 368.898 69.0859C368.633 69.1328 368.372 69.1562 368.117 69.1562C367.664 69.1562 367.253 69.0781 366.883 68.9219C366.513 68.7604 366.216 68.4896 365.992 68.1094C365.773 67.7292 365.664 67.2031 365.664 66.5312V61.4531H364.445V60.8203L365.672 60.3125L366.188 58.4531H366.969V60.4375H369.477V61.4531H366.969V66.4922C366.969 67.0286 367.091 67.4297 367.336 67.6953C367.586 67.9609 367.917 68.0938 368.328 68.0938ZM371.07 68.1875C371.07 67.8229 371.159 67.5651 371.336 67.4141C371.513 67.2578 371.729 67.1797 371.984 67.1797C372.25 67.1797 372.474 67.2578 372.656 67.4141C372.839 67.5651 372.93 67.8229 372.93 68.1875C372.93 68.5469 372.839 68.8099 372.656 68.9766C372.474 69.138 372.25 69.2188 371.984 69.2188C371.729 69.2188 371.513 69.138 371.336 68.9766C371.159 68.8099 371.07 68.5469 371.07 68.1875Z" fill="#101820"/>
<path d="M181.359 35.5781C182.833 35.5781 183.909 35.8802 184.586 36.4844C185.263 37.0885 185.602 37.9349 185.602 39.0234C185.602 39.5182 185.523 39.9896 185.367 40.4375C185.216 40.8802 184.966 41.2734 184.617 41.6172C184.268 41.9557 183.807 42.224 183.234 42.4219C182.667 42.6198 181.966 42.7188 181.133 42.7188H179.914V47H178.039V35.5781H181.359ZM181.234 37.1328H179.914V41.1562H180.938C181.526 41.1562 182.026 41.0885 182.438 40.9531C182.849 40.8125 183.161 40.5911 183.375 40.2891C183.589 39.987 183.695 39.5885 183.695 39.0938C183.695 38.4323 183.495 37.9401 183.094 37.6172C182.698 37.2943 182.078 37.1328 181.234 37.1328ZM192.078 38.1875C192.224 38.1875 192.383 38.1953 192.555 38.2109C192.727 38.2266 192.875 38.2474 193 38.2734L192.828 39.9922C192.719 39.9609 192.583 39.9375 192.422 39.9219C192.266 39.9062 192.125 39.8984 192 39.8984C191.672 39.8984 191.359 39.9531 191.062 40.0625C190.766 40.1667 190.503 40.3281 190.273 40.5469C190.044 40.7604 189.865 41.0286 189.734 41.3516C189.604 41.6745 189.539 42.0495 189.539 42.4766V47H187.695V38.3516H189.133L189.383 39.875H189.469C189.641 39.5677 189.854 39.2865 190.109 39.0312C190.365 38.776 190.656 38.5729 190.984 38.4219C191.318 38.2656 191.682 38.1875 192.078 38.1875ZM196.438 38.3516V47H194.602V38.3516H196.438ZM195.531 35.0391C195.812 35.0391 196.055 35.1146 196.258 35.2656C196.466 35.4167 196.57 35.6771 196.57 36.0469C196.57 36.4115 196.466 36.6719 196.258 36.8281C196.055 36.9792 195.812 37.0547 195.531 37.0547C195.24 37.0547 194.992 36.9792 194.789 36.8281C194.591 36.6719 194.492 36.4115 194.492 36.0469C194.492 35.6771 194.591 35.4167 194.789 35.2656C194.992 35.1146 195.24 35.0391 195.531 35.0391ZM201.047 47L197.758 38.3516H199.703L201.484 43.4297C201.599 43.7526 201.703 44.1016 201.797 44.4766C201.891 44.8516 201.956 45.1667 201.992 45.4219H202.055C202.091 45.1562 202.161 44.8385 202.266 44.4688C202.37 44.0938 202.477 43.7474 202.586 43.4297L204.367 38.3516H206.305L203.016 47H201.047ZM211.008 38.1875C212.102 38.1875 212.927 38.4297 213.484 38.9141C214.047 39.3984 214.328 40.1536 214.328 41.1797V47H213.023L212.672 45.7734H212.609C212.365 46.0859 212.112 46.3438 211.852 46.5469C211.591 46.75 211.289 46.901 210.945 47C210.607 47.1042 210.193 47.1562 209.703 47.1562C209.188 47.1562 208.727 47.0625 208.32 46.875C207.914 46.6823 207.594 46.3906 207.359 46C207.125 45.6094 207.008 45.1146 207.008 44.5156C207.008 43.625 207.339 42.9557 208 42.5078C208.667 42.0599 209.672 41.8125 211.016 41.7656L212.516 41.7109V41.2578C212.516 40.6589 212.375 40.2318 212.094 39.9766C211.818 39.7214 211.427 39.5938 210.922 39.5938C210.49 39.5938 210.07 39.6562 209.664 39.7812C209.258 39.9062 208.862 40.0599 208.477 40.2422L207.883 38.9453C208.305 38.7214 208.784 38.5391 209.32 38.3984C209.862 38.2578 210.424 38.1875 211.008 38.1875ZM212.508 42.8672L211.391 42.9062C210.474 42.9375 209.831 43.0938 209.461 43.375C209.091 43.6562 208.906 44.0417 208.906 44.5312C208.906 44.9583 209.034 45.2708 209.289 45.4688C209.544 45.6615 209.88 45.7578 210.297 45.7578C210.932 45.7578 211.458 45.5781 211.875 45.2188C212.297 44.8542 212.508 44.3203 212.508 43.6172V42.8672ZM220.383 47.1562C219.565 47.1562 218.857 46.9974 218.258 46.6797C217.659 46.362 217.198 45.875 216.875 45.2188C216.552 44.5625 216.391 43.7292 216.391 42.7188C216.391 41.6667 216.568 40.8073 216.922 40.1406C217.276 39.474 217.766 38.9818 218.391 38.6641C219.021 38.3464 219.742 38.1875 220.555 38.1875C221.07 38.1875 221.536 38.2396 221.953 38.3438C222.375 38.4427 222.732 38.5651 223.023 38.7109L222.477 40.1797C222.159 40.0495 221.833 39.9401 221.5 39.8516C221.167 39.763 220.846 39.7188 220.539 39.7188C220.034 39.7188 219.612 39.8307 219.273 40.0547C218.94 40.2786 218.69 40.612 218.523 41.0547C218.362 41.4974 218.281 42.0469 218.281 42.7031C218.281 43.3385 218.365 43.875 218.531 44.3125C218.698 44.7448 218.945 45.0729 219.273 45.2969C219.602 45.5156 220.005 45.625 220.484 45.625C220.958 45.625 221.383 45.5677 221.758 45.4531C222.133 45.3385 222.487 45.1901 222.82 45.0078V46.6016C222.492 46.7891 222.141 46.9271 221.766 47.0156C221.391 47.1094 220.93 47.1562 220.383 47.1562ZM223.547 38.3516H225.547L227.32 43.2891C227.398 43.513 227.469 43.7344 227.531 43.9531C227.599 44.1667 227.656 44.3776 227.703 44.5859C227.755 44.7943 227.797 45.0026 227.828 45.2109H227.875C227.927 44.9401 228 44.638 228.094 44.3047C228.193 43.9661 228.302 43.6276 228.422 43.2891L230.125 38.3516H232.102L228.391 48.1875C228.177 48.75 227.914 49.2292 227.602 49.625C227.294 50.026 226.93 50.3281 226.508 50.5312C226.086 50.7396 225.604 50.8438 225.062 50.8438C224.802 50.8438 224.576 50.8281 224.383 50.7969C224.19 50.7708 224.026 50.7422 223.891 50.7109V49.2422C224 49.2682 224.138 49.2917 224.305 49.3125C224.471 49.3333 224.643 49.3438 224.82 49.3438C225.148 49.3438 225.432 49.2786 225.672 49.1484C225.911 49.0182 226.115 48.8333 226.281 48.5938C226.448 48.3594 226.586 48.0911 226.695 47.7891L227 46.9766L223.547 38.3516ZM241.078 35.5781C242.552 35.5781 243.628 35.8802 244.305 36.4844C244.982 37.0885 245.32 37.9349 245.32 39.0234C245.32 39.5182 245.242 39.9896 245.086 40.4375C244.935 40.8802 244.685 41.2734 244.336 41.6172C243.987 41.9557 243.526 42.224 242.953 42.4219C242.385 42.6198 241.685 42.7188 240.852 42.7188H239.633V47H237.758V35.5781H241.078ZM240.953 37.1328H239.633V41.1562H240.656C241.245 41.1562 241.745 41.0885 242.156 40.9531C242.568 40.8125 242.88 40.5911 243.094 40.2891C243.307 39.987 243.414 39.5885 243.414 39.0938C243.414 38.4323 243.214 37.9401 242.812 37.6172C242.417 37.2943 241.797 37.1328 240.953 37.1328ZM255.07 42.6562C255.07 43.375 254.977 44.013 254.789 44.5703C254.602 45.1276 254.328 45.599 253.969 45.9844C253.609 46.3646 253.177 46.6562 252.672 46.8594C252.167 47.0573 251.596 47.1562 250.961 47.1562C250.367 47.1562 249.823 47.0573 249.328 46.8594C248.833 46.6562 248.404 46.3646 248.039 45.9844C247.68 45.599 247.401 45.1276 247.203 44.5703C247.005 44.013 246.906 43.375 246.906 42.6562C246.906 41.7031 247.07 40.8958 247.398 40.2344C247.732 39.5677 248.206 39.0599 248.82 38.7109C249.435 38.362 250.167 38.1875 251.016 38.1875C251.812 38.1875 252.516 38.362 253.125 38.7109C253.734 39.0599 254.211 39.5677 254.555 40.2344C254.898 40.901 255.07 41.7083 255.07 42.6562ZM248.797 42.6562C248.797 43.2865 248.872 43.8255 249.023 44.2734C249.18 44.7214 249.419 45.0651 249.742 45.3047C250.065 45.5391 250.482 45.6562 250.992 45.6562C251.503 45.6562 251.919 45.5391 252.242 45.3047C252.565 45.0651 252.802 44.7214 252.953 44.2734C253.104 43.8255 253.18 43.2865 253.18 42.6562C253.18 42.026 253.104 41.4922 252.953 41.0547C252.802 40.612 252.565 40.276 252.242 40.0469C251.919 39.8125 251.5 39.6953 250.984 39.6953C250.224 39.6953 249.669 39.9505 249.32 40.4609C248.971 40.9714 248.797 41.7031 248.797 42.6562ZM259.023 47H257.18V34.8438H259.023V47ZM263.484 38.3516V47H261.648V38.3516H263.484ZM262.578 35.0391C262.859 35.0391 263.102 35.1146 263.305 35.2656C263.513 35.4167 263.617 35.6771 263.617 36.0469C263.617 36.4115 263.513 36.6719 263.305 36.8281C263.102 36.9792 262.859 37.0547 262.578 37.0547C262.286 37.0547 262.039 36.9792 261.836 36.8281C261.638 36.6719 261.539 36.4115 261.539 36.0469C261.539 35.6771 261.638 35.4167 261.836 35.2656C262.039 35.1146 262.286 35.0391 262.578 35.0391ZM269.602 47.1562C268.784 47.1562 268.076 46.9974 267.477 46.6797C266.878 46.362 266.417 45.875 266.094 45.2188C265.771 44.5625 265.609 43.7292 265.609 42.7188C265.609 41.6667 265.786 40.8073 266.141 40.1406C266.495 39.474 266.984 38.9818 267.609 38.6641C268.24 38.3464 268.961 38.1875 269.773 38.1875C270.289 38.1875 270.755 38.2396 271.172 38.3438C271.594 38.4427 271.951 38.5651 272.242 38.7109L271.695 40.1797C271.378 40.0495 271.052 39.9401 270.719 39.8516C270.385 39.763 270.065 39.7188 269.758 39.7188C269.253 39.7188 268.831 39.8307 268.492 40.0547C268.159 40.2786 267.909 40.612 267.742 41.0547C267.581 41.4974 267.5 42.0469 267.5 42.7031C267.5 43.3385 267.583 43.875 267.75 44.3125C267.917 44.7448 268.164 45.0729 268.492 45.2969C268.82 45.5156 269.224 45.625 269.703 45.625C270.177 45.625 270.602 45.5677 270.977 45.4531C271.352 45.3385 271.706 45.1901 272.039 45.0078V46.6016C271.711 46.7891 271.359 46.9271 270.984 47.0156C270.609 47.1094 270.148 47.1562 269.602 47.1562ZM272.766 38.3516H274.766L276.539 43.2891C276.617 43.513 276.688 43.7344 276.75 43.9531C276.818 44.1667 276.875 44.3776 276.922 44.5859C276.974 44.7943 277.016 45.0026 277.047 45.2109H277.094C277.146 44.9401 277.219 44.638 277.312 44.3047C277.411 43.9661 277.521 43.6276 277.641 43.2891L279.344 38.3516H281.32L277.609 48.1875C277.396 48.75 277.133 49.2292 276.82 49.625C276.513 50.026 276.148 50.3281 275.727 50.5312C275.305 50.7396 274.823 50.8438 274.281 50.8438C274.021 50.8438 273.794 50.8281 273.602 50.7969C273.409 50.7708 273.245 50.7422 273.109 50.7109V49.2422C273.219 49.2682 273.357 49.2917 273.523 49.3125C273.69 49.3333 273.862 49.3438 274.039 49.3438C274.367 49.3438 274.651 49.2786 274.891 49.1484C275.13 49.0182 275.333 48.8333 275.5 48.5938C275.667 48.3594 275.805 48.0911 275.914 47.7891L276.219 46.9766L272.766 38.3516Z" fill="#00664F"/>
<path d="M172.383 47.9766H176.539V48.3672H172.383V47.9766Z" fill="black"/>
<path d="M176.539 47.9766H285.477V48.3672H176.539V47.9766Z" fill="#00664F"/>
<circle cx="406.5" cy="17" r="8.1" stroke="#00664F" stroke-width="1.8"/>
<path d="M402.5 17L410.5 17" stroke="#00664F" stroke-width="1.8" stroke-linecap="square"/>
</svg>
